M48
;DRILL file {KiCad 4.0.2-4+6225~38~ubuntu14.04.1-stable} date Thu 07 Apr 2016 11:17:58 PM ICT
;FORMAT={-:-/ absolute / metric / decimal}
FMAT,2
METRIC,TZ
T1C0.599
T2C0.762
T3C0.800
T4C0.800
T5C0.813
T6C1.000
T7C1.001
T8C1.100
T9C1.199
T10C1.250
T11C1.300
%
G90
G05
M71
T1
X145.034Y-100.597
X145.034Y-102.095
T2
X161.671Y-89.789
X161.671Y-94.869
X164.211Y-92.329
X188.976Y-112.776
X191.516Y-110.236
X194.056Y-112.776
T3
X119.253Y-130.302
X120.269Y-115.824
X121.158Y-105.537
X121.793Y-130.302
X126.238Y-105.537
X128.143Y-115.951
X137.16Y-121.285
X137.16Y-123.825
X138.43Y-105.664
X138.43Y-108.204
X143.51Y-92.075
X143.51Y-94.615
X143.51Y-97.79
X143.51Y-105.41
X144.78Y-121.285
X144.78Y-123.825
X146.05Y-86.995
X146.05Y-89.535
X146.05Y-92.075
X146.05Y-94.615
X146.05Y-97.79
X146.05Y-105.41
X146.05Y-110.49
X146.05Y-113.03
X148.59Y-97.79
X148.59Y-105.41
X149.225Y-110.49
X149.225Y-113.665
X149.225Y-116.84
X149.225Y-123.571
X151.13Y-97.79
X151.13Y-105.41
X151.765Y-110.49
X151.765Y-113.665
X152.019Y-102.743
X152.146Y-116.967
X152.146Y-123.825
X153.67Y-97.79
X153.67Y-105.41
X154.178Y-80.645
X154.178Y-86.36
X156.21Y-97.79
X156.21Y-105.41
X157.861Y-102.997
X158.75Y-97.79
X158.75Y-105.41
X159.131Y-109.22
X159.131Y-114.3
X161.29Y-97.79
X161.29Y-105.41
X161.544Y-109.22
X161.544Y-111.76
X163.83Y-97.79
X163.83Y-105.41
X164.465Y-109.22
X164.465Y-111.76
X165.735Y-117.475
X165.735Y-132.715
X166.37Y-97.79
X166.37Y-105.41
X167.386Y-109.22
X167.386Y-111.76
X168.275Y-117.475
X168.275Y-132.715
X168.91Y-97.79
X168.91Y-105.41
X170.307Y-109.22
X170.307Y-111.76
X170.434Y-124.587
X170.815Y-117.475
X170.815Y-132.715
X171.069Y-90.043
X171.069Y-92.583
X171.069Y-95.123
X171.45Y-97.79
X171.45Y-105.41
X173.228Y-109.22
X173.228Y-111.76
X173.355Y-117.475
X173.355Y-132.715
X173.99Y-97.79
X173.99Y-105.41
X175.26Y-90.17
X175.26Y-92.71
X175.26Y-95.25
X175.895Y-117.475
X175.895Y-132.715
X176.149Y-109.22
X176.149Y-111.76
X176.403Y-124.587
X176.53Y-97.79
X176.53Y-105.41
X178.172Y-95.513
X178.435Y-90.805
X178.435Y-117.475
X178.435Y-132.715
X179.07Y-109.22
X179.07Y-111.76
X179.968Y-93.717
X180.975Y-90.805
X184.15Y-93.98
X184.785Y-91.44
X186.69Y-93.98
X187.325Y-91.44
X189.865Y-102.235
X189.865Y-104.775
X189.865Y-107.315
X192.405Y-102.235
X192.405Y-104.775
X192.405Y-107.315
X194.945Y-105.664
X195.834Y-110.744
T4
X112.903Y-100.457
X112.903Y-114.427
X112.903Y-118.872
X112.903Y-130.302
X115.443Y-100.457
X115.443Y-114.427
X115.443Y-118.872
X115.443Y-130.302
X136.398Y-94.996
X136.398Y-97.536
X137.16Y-99.949
X137.16Y-102.743
X139.7Y-99.949
X139.7Y-102.743
X140.97Y-108.585
X140.97Y-116.205
X143.51Y-108.585
X143.51Y-116.205
X149.098Y-90.17
X151.638Y-90.17
X154.559Y-90.17
X156.21Y-100.584
X157.099Y-90.17
X158.75Y-100.584
X161.671Y-100.584
X164.211Y-100.584
X167.005Y-92.329
X167.005Y-94.869
X181.61Y-97.155
X181.61Y-99.695
X182.372Y-107.569
X184.15Y-97.155
X184.15Y-99.695
X184.912Y-107.569
X186.69Y-97.155
X186.69Y-99.695
T5
X146.685Y-107.95
X154.305Y-107.95
X167.64Y-100.33
X175.26Y-100.33
T6
X115.443Y-105.537
X115.443Y-108.077
X115.443Y-110.617
X115.443Y-124.587
X115.443Y-127.127
X132.37Y-126.924
X132.37Y-133.426
X136.87Y-126.924
X136.87Y-133.426
X139.99Y-126.924
X139.99Y-133.426
X144.49Y-126.924
X144.49Y-133.426
T7
X115.443Y-122.047
X119.507Y-101.219
X125.603Y-130.302
X125.603Y-132.842
X126.238Y-101.092
X133.35Y-109.855
X133.35Y-117.094
X142.24Y-111.125
X142.24Y-113.665
X148.463Y-86.233
X151.003Y-86.233
X154.94Y-111.125
X154.94Y-113.665
X201.295Y-107.95
T8
X120.904Y-78.232
X120.904Y-89.408
X132.08Y-78.232
X132.08Y-89.408
T9
X150.848Y-93.98
X155.73Y-93.98
T10
X192.405Y-78.105
X192.405Y-83.185
X192.405Y-88.265
X192.405Y-93.345
X192.405Y-98.425
T11
X112.903Y-78.312
X112.903Y-83.312
T7
X111.247Y-93.108G85X111.247Y-95.106
G05
X117.249Y-92.857G85X117.249Y-95.357
G05
T0
M30
