G04 #@! TF.FileFunction,Legend,Top*
%FSLAX46Y46*%
G04 Gerber Fmt 4.6, Leading zero omitted, Abs format (unit mm)*
G04 Created by KiCad (PCBNEW 4.0.2-4+6225~38~ubuntu14.04.1-stable) date Thu 07 Apr 2016 12:32:57 PM ICT*
%MOMM*%
G01*
G04 APERTURE LIST*
%ADD10C,0.100000*%
%ADD11C,0.150000*%
%ADD12C,0.381000*%
%ADD13C,0.254000*%
%ADD14C,0.304800*%
%ADD15C,0.300000*%
%ADD16C,2.540000*%
%ADD17C,0.203200*%
%ADD18C,0.317500*%
G04 APERTURE END LIST*
D10*
D11*
X197235000Y-134595000D02*
X146935000Y-134595000D01*
X146935000Y-134595000D02*
X146935000Y-115595000D01*
X146935000Y-115595000D02*
X197235000Y-115595000D01*
X197235000Y-115595000D02*
X197235000Y-134595000D01*
X187715000Y-125095000D02*
X192715000Y-125095000D01*
X185965000Y-131095000D02*
X191215000Y-131095000D01*
X193465000Y-124595000D02*
X194965000Y-119095000D01*
X191715000Y-131095000D02*
X193215000Y-125595000D01*
X187215000Y-124595000D02*
X188715000Y-119095000D01*
X185465000Y-131095000D02*
X186965000Y-125595000D01*
X189215000Y-119095000D02*
X194465000Y-119095000D01*
X150885000Y-125095000D02*
X155885000Y-125095000D01*
X149135000Y-131095000D02*
X154385000Y-131095000D01*
X156635000Y-124595000D02*
X158135000Y-119095000D01*
X154885000Y-131095000D02*
X156385000Y-125595000D01*
X150385000Y-124595000D02*
X151885000Y-119095000D01*
X148635000Y-131095000D02*
X150135000Y-125595000D01*
X152385000Y-119095000D02*
X157635000Y-119095000D01*
X165085000Y-119095000D02*
X170335000Y-119095000D01*
X161335000Y-131095000D02*
X162835000Y-125595000D01*
X163085000Y-124595000D02*
X164585000Y-119095000D01*
X167585000Y-131095000D02*
X169085000Y-125595000D01*
X169335000Y-124595000D02*
X170835000Y-119095000D01*
X161835000Y-131095000D02*
X167085000Y-131095000D01*
X163585000Y-125095000D02*
X168585000Y-125095000D01*
X181970000Y-124595000D02*
X183470000Y-119095000D01*
X177720000Y-119095000D02*
X182970000Y-119095000D01*
X175720000Y-124595000D02*
X177220000Y-119095000D01*
X176220000Y-125095000D02*
X181220000Y-125095000D01*
X174470000Y-131095000D02*
X179720000Y-131095000D01*
X173970000Y-131095000D02*
X175470000Y-125595000D01*
X180220000Y-131095000D02*
X181720000Y-125595000D01*
X194465000Y-130595000D02*
G75*
G03X194465000Y-130595000I-500000J0D01*
G01*
X157635000Y-130595000D02*
G75*
G03X157635000Y-130595000I-500000J0D01*
G01*
X182970000Y-130595000D02*
G75*
G03X182970000Y-130595000I-500000J0D01*
G01*
X170335000Y-130595000D02*
G75*
G03X170335000Y-130595000I-500000J0D01*
G01*
D12*
X108198920Y-89606120D02*
X108198920Y-98607880D01*
X103698040Y-89606120D02*
X103698040Y-98607880D01*
X103698040Y-98607880D02*
X118297960Y-98607880D01*
X118297960Y-98607880D02*
X118297960Y-89606120D01*
X118297960Y-89606120D02*
X103698040Y-89606120D01*
D10*
X188214000Y-108839000D02*
X194818000Y-108839000D01*
X194818000Y-108839000D02*
X194818000Y-115443000D01*
X194818000Y-115443000D02*
X188214000Y-115443000D01*
X188214000Y-115443000D02*
X188214000Y-108839000D01*
X165608000Y-89027000D02*
X165608000Y-95631000D01*
X165608000Y-95631000D02*
X159004000Y-95631000D01*
X159004000Y-95631000D02*
X159004000Y-89027000D01*
X159004000Y-89027000D02*
X165608000Y-89027000D01*
X132080000Y-75946000D02*
X134366000Y-78232000D01*
X134366000Y-78232000D02*
X134366000Y-91694000D01*
X134366000Y-91694000D02*
X118618000Y-91694000D01*
X118618000Y-91694000D02*
X118618000Y-75946000D01*
X118618000Y-75946000D02*
X132080000Y-75946000D01*
X128918332Y-83820000D02*
G75*
G03X128918332Y-83820000I-2426332J0D01*
G01*
D13*
X196977000Y-100965000D02*
X196977000Y-100711000D01*
X187833000Y-100965000D02*
X187833000Y-100711000D01*
X188849000Y-100965000D02*
X188849000Y-100711000D01*
X187833000Y-100711000D02*
X187833000Y-75565000D01*
X196977000Y-75565000D02*
X196977000Y-100711000D01*
X188849000Y-100711000D02*
X188849000Y-75565000D01*
X196977000Y-100965000D02*
X187833000Y-100965000D01*
X187833000Y-75565000D02*
X188849000Y-75565000D01*
X196977000Y-75565000D02*
X196215000Y-75565000D01*
X188595000Y-75565000D02*
X196215000Y-75565000D01*
D11*
X157988000Y-92979240D02*
X158188660Y-93380560D01*
X158188660Y-93380560D02*
X158290260Y-93980000D01*
X158290260Y-93980000D02*
X158188660Y-94480380D01*
X158188660Y-94480380D02*
X157789880Y-95178880D01*
X157789880Y-95178880D02*
X157187900Y-95580200D01*
X157187900Y-95580200D02*
X156588460Y-95780860D01*
X156588460Y-95780860D02*
X149989540Y-95780860D01*
X149989540Y-95780860D02*
X149288500Y-95580200D01*
X149288500Y-95580200D02*
X148889720Y-95280480D01*
X148889720Y-95280480D02*
X148488400Y-94780100D01*
X148488400Y-94780100D02*
X148287740Y-94180660D01*
X148287740Y-94180660D02*
X148287740Y-93680280D01*
X148287740Y-93680280D02*
X148488400Y-93179900D01*
X148488400Y-93179900D02*
X148988780Y-92580460D01*
X148988780Y-92580460D02*
X149489160Y-92280740D01*
X149489160Y-92280740D02*
X149989540Y-92179140D01*
X150088600Y-92179140D02*
X156690060Y-92179140D01*
X156690060Y-92179140D02*
X157088840Y-92280740D01*
X157088840Y-92280740D02*
X157589220Y-92580460D01*
X157589220Y-92580460D02*
X158089600Y-93080840D01*
X150098760Y-91650820D02*
X149639020Y-91699080D01*
X149639020Y-91699080D02*
X149240240Y-91810840D01*
X149240240Y-91810840D02*
X148808440Y-92029280D01*
X148808440Y-92029280D02*
X148518880Y-92260420D01*
X148518880Y-92260420D02*
X148188680Y-92610940D01*
X148188680Y-92610940D02*
X147899120Y-93149420D01*
X147899120Y-93149420D02*
X147769580Y-93748860D01*
X147769580Y-93748860D02*
X147769580Y-94259400D01*
X147769580Y-94259400D02*
X147939760Y-94960440D01*
X147939760Y-94960440D02*
X148338540Y-95549720D01*
X148338540Y-95549720D02*
X148798280Y-95920560D01*
X148798280Y-95920560D02*
X149219920Y-96128840D01*
X149219920Y-96128840D02*
X149669500Y-96288860D01*
X149669500Y-96288860D02*
X150108920Y-96319340D01*
X157449520Y-96100900D02*
X157827980Y-95879920D01*
X157827980Y-95879920D02*
X158148020Y-95600520D01*
X158148020Y-95600520D02*
X158399480Y-95270320D01*
X158399480Y-95270320D02*
X158699200Y-94719140D01*
X158699200Y-94719140D02*
X158808420Y-94249240D01*
X158808420Y-94249240D02*
X158828740Y-93789500D01*
X158828740Y-93789500D02*
X158739840Y-93329760D01*
X158739840Y-93329760D02*
X158549340Y-92880180D01*
X158549340Y-92880180D02*
X158188660Y-92410280D01*
X158188660Y-92410280D02*
X157838140Y-92090240D01*
X157838140Y-92090240D02*
X157449520Y-91859100D01*
X157449520Y-91859100D02*
X157020260Y-91719400D01*
X157020260Y-91719400D02*
X156578300Y-91650820D01*
X150088600Y-96309180D02*
X156540200Y-96309180D01*
X156540200Y-96309180D02*
X156959300Y-96271080D01*
X156959300Y-96271080D02*
X157449520Y-96100900D01*
X150088600Y-91650820D02*
X156540200Y-91650820D01*
X178825000Y-97925000D02*
X177555000Y-97925000D01*
X178825000Y-105275000D02*
X177555000Y-105275000D01*
X141215000Y-105275000D02*
X142485000Y-105275000D01*
X141215000Y-97925000D02*
X142485000Y-97925000D01*
X178825000Y-97925000D02*
X178825000Y-105275000D01*
X141215000Y-97925000D02*
X141215000Y-105275000D01*
X177555000Y-97925000D02*
X177555000Y-96640000D01*
X117003000Y-80812000D02*
X117503000Y-80812000D01*
X115003000Y-78312000D02*
G75*
G03X115003000Y-78312000I-2000000J0D01*
G01*
X115003000Y-83312000D02*
G75*
G03X115003000Y-83312000I-2000000J0D01*
G01*
X115503000Y-85812000D02*
X115503000Y-75812000D01*
X110603000Y-85812000D02*
X110603000Y-75812000D01*
X117003000Y-85812000D02*
X117003000Y-75812000D01*
X117503000Y-85812000D02*
X117503000Y-75812000D01*
X117503000Y-75812000D02*
X107703000Y-75812000D01*
X107703000Y-75812000D02*
X107703000Y-85812000D01*
X107703000Y-85812000D02*
X117503000Y-85812000D01*
X140926000Y-110926000D02*
X141126000Y-110926000D01*
X143520000Y-110926000D02*
X143340000Y-110926000D01*
X143209643Y-114153744D02*
G75*
G03X143526000Y-110926000I-1003643J1727744D01*
G01*
X143339068Y-113478006D02*
G75*
G03X143340000Y-111375000I-1133068J1052006D01*
G01*
X140899274Y-110938780D02*
G75*
G03X141246000Y-114176000I1306726J-1497220D01*
G01*
X141126747Y-111412111D02*
G75*
G03X141146000Y-113460000I1079253J-1013889D01*
G01*
X156254000Y-113864000D02*
X156054000Y-113864000D01*
X153660000Y-113864000D02*
X153840000Y-113864000D01*
X153970357Y-110636256D02*
G75*
G03X153654000Y-113864000I1003643J-1727744D01*
G01*
X153840932Y-111311994D02*
G75*
G03X153840000Y-113415000I1133068J-1052006D01*
G01*
X156280726Y-113851220D02*
G75*
G03X155934000Y-110614000I-1306726J1497220D01*
G01*
X156053253Y-113377889D02*
G75*
G03X156034000Y-111330000I-1079253J1013889D01*
G01*
X148264000Y-87547000D02*
X148264000Y-87347000D01*
X148264000Y-84953000D02*
X148264000Y-85133000D01*
X151491744Y-85263357D02*
G75*
G03X148264000Y-84947000I-1727744J-1003643D01*
G01*
X150816006Y-85133932D02*
G75*
G03X148713000Y-85133000I-1052006J-1133068D01*
G01*
X148276780Y-87573726D02*
G75*
G03X151514000Y-87227000I1497220J1306726D01*
G01*
X148750111Y-87346253D02*
G75*
G03X150798000Y-87327000I1013889J1079253D01*
G01*
X124289000Y-130103000D02*
X124489000Y-130103000D01*
X126883000Y-130103000D02*
X126703000Y-130103000D01*
X126572643Y-133330744D02*
G75*
G03X126889000Y-130103000I-1003643J1727744D01*
G01*
X126702068Y-132655006D02*
G75*
G03X126703000Y-130552000I-1133068J1052006D01*
G01*
X124262274Y-130115780D02*
G75*
G03X124609000Y-133353000I1306726J-1497220D01*
G01*
X124489747Y-130589111D02*
G75*
G03X124509000Y-132637000I1079253J-1013889D01*
G01*
D14*
X135128000Y-98755200D02*
X135128000Y-93726000D01*
X135128000Y-93726000D02*
X137668000Y-93726000D01*
X137668000Y-93726000D02*
X137668000Y-98806000D01*
X137668000Y-98806000D02*
X135128000Y-98806000D01*
X135763000Y-98806000D02*
X135128000Y-98171000D01*
X139750800Y-114935000D02*
X144780000Y-114935000D01*
X144780000Y-114935000D02*
X144780000Y-117475000D01*
X144780000Y-117475000D02*
X139700000Y-117475000D01*
X139700000Y-117475000D02*
X139700000Y-114935000D01*
X139700000Y-115570000D02*
X140335000Y-114935000D01*
X139750800Y-107315000D02*
X144780000Y-107315000D01*
X144780000Y-107315000D02*
X144780000Y-109855000D01*
X144780000Y-109855000D02*
X139700000Y-109855000D01*
X139700000Y-109855000D02*
X139700000Y-107315000D01*
X139700000Y-107950000D02*
X140335000Y-107315000D01*
X159969200Y-101854000D02*
X154940000Y-101854000D01*
X154940000Y-101854000D02*
X154940000Y-99314000D01*
X154940000Y-99314000D02*
X160020000Y-99314000D01*
X160020000Y-99314000D02*
X160020000Y-101854000D01*
X160020000Y-101219000D02*
X159385000Y-101854000D01*
X152857200Y-91440000D02*
X147828000Y-91440000D01*
X147828000Y-91440000D02*
X147828000Y-88900000D01*
X147828000Y-88900000D02*
X152908000Y-88900000D01*
X152908000Y-88900000D02*
X152908000Y-91440000D01*
X152908000Y-90805000D02*
X152273000Y-91440000D01*
X158318200Y-91440000D02*
X153289000Y-91440000D01*
X153289000Y-91440000D02*
X153289000Y-88900000D01*
X153289000Y-88900000D02*
X158369000Y-88900000D01*
X158369000Y-88900000D02*
X158369000Y-91440000D01*
X158369000Y-90805000D02*
X157734000Y-91440000D01*
X140919200Y-101219000D02*
X135890000Y-101219000D01*
X135890000Y-101219000D02*
X135890000Y-98679000D01*
X135890000Y-98679000D02*
X140970000Y-98679000D01*
X140970000Y-98679000D02*
X140970000Y-101219000D01*
X140970000Y-100584000D02*
X140335000Y-101219000D01*
X116662200Y-131572000D02*
X111633000Y-131572000D01*
X111633000Y-131572000D02*
X111633000Y-129032000D01*
X111633000Y-129032000D02*
X116713000Y-129032000D01*
X116713000Y-129032000D02*
X116713000Y-131572000D01*
X116713000Y-130937000D02*
X116078000Y-131572000D01*
X140919200Y-104013000D02*
X135890000Y-104013000D01*
X135890000Y-104013000D02*
X135890000Y-101473000D01*
X135890000Y-101473000D02*
X140970000Y-101473000D01*
X140970000Y-101473000D02*
X140970000Y-104013000D01*
X140970000Y-103378000D02*
X140335000Y-104013000D01*
X168275000Y-91109800D02*
X168275000Y-96139000D01*
X168275000Y-96139000D02*
X165735000Y-96139000D01*
X165735000Y-96139000D02*
X165735000Y-91059000D01*
X165735000Y-91059000D02*
X168275000Y-91059000D01*
X167640000Y-91059000D02*
X168275000Y-91694000D01*
X116662200Y-120142000D02*
X111633000Y-120142000D01*
X111633000Y-120142000D02*
X111633000Y-117602000D01*
X111633000Y-117602000D02*
X116713000Y-117602000D01*
X116713000Y-117602000D02*
X116713000Y-120142000D01*
X116713000Y-119507000D02*
X116078000Y-120142000D01*
X165430200Y-101854000D02*
X160401000Y-101854000D01*
X160401000Y-101854000D02*
X160401000Y-99314000D01*
X160401000Y-99314000D02*
X165481000Y-99314000D01*
X165481000Y-99314000D02*
X165481000Y-101854000D01*
X165481000Y-101219000D02*
X164846000Y-101854000D01*
X116662200Y-115697000D02*
X111633000Y-115697000D01*
X111633000Y-115697000D02*
X111633000Y-113157000D01*
X111633000Y-113157000D02*
X116713000Y-113157000D01*
X116713000Y-113157000D02*
X116713000Y-115697000D01*
X116713000Y-115062000D02*
X116078000Y-115697000D01*
X181152800Y-106299000D02*
X186182000Y-106299000D01*
X186182000Y-106299000D02*
X186182000Y-108839000D01*
X186182000Y-108839000D02*
X181102000Y-108839000D01*
X181102000Y-108839000D02*
X181102000Y-106299000D01*
X181102000Y-106934000D02*
X181737000Y-106299000D01*
X116662200Y-101727000D02*
X111633000Y-101727000D01*
X111633000Y-101727000D02*
X111633000Y-99187000D01*
X111633000Y-99187000D02*
X116713000Y-99187000D01*
X116713000Y-99187000D02*
X116713000Y-101727000D01*
X116713000Y-101092000D02*
X116078000Y-101727000D01*
X180390800Y-98425000D02*
X185420000Y-98425000D01*
X185420000Y-98425000D02*
X185420000Y-100965000D01*
X185420000Y-100965000D02*
X180340000Y-100965000D01*
X180340000Y-100965000D02*
X180340000Y-98425000D01*
X180340000Y-99060000D02*
X180975000Y-98425000D01*
X180390800Y-95885000D02*
X185420000Y-95885000D01*
X185420000Y-95885000D02*
X185420000Y-98425000D01*
X185420000Y-98425000D02*
X180340000Y-98425000D01*
X180340000Y-98425000D02*
X180340000Y-95885000D01*
X180340000Y-96520000D02*
X180975000Y-95885000D01*
X185420000Y-100914200D02*
X185420000Y-95885000D01*
X185420000Y-95885000D02*
X187960000Y-95885000D01*
X187960000Y-95885000D02*
X187960000Y-100965000D01*
X187960000Y-100965000D02*
X185420000Y-100965000D01*
X186055000Y-100965000D02*
X185420000Y-100330000D01*
D11*
X175260000Y-100330000D02*
X174752000Y-100330000D01*
X167640000Y-100330000D02*
X168148000Y-100330000D01*
X168148000Y-100330000D02*
X168148000Y-101346000D01*
X168148000Y-101346000D02*
X174752000Y-101346000D01*
X174752000Y-101346000D02*
X174752000Y-99314000D01*
X174752000Y-99314000D02*
X168148000Y-99314000D01*
X168148000Y-99314000D02*
X168148000Y-100330000D01*
X174752000Y-100838000D02*
X174244000Y-101346000D01*
X111760000Y-110617000D02*
X113030000Y-110617000D01*
X111760000Y-108077000D02*
X113030000Y-108077000D01*
X111760000Y-105537000D02*
X113030000Y-105537000D01*
X103225600Y-103911400D02*
X103225600Y-102717600D01*
X103251000Y-112268000D02*
X103251000Y-113411000D01*
X110032800Y-112268000D02*
X103276400Y-112268000D01*
X103251000Y-103911400D02*
X110032800Y-103911400D01*
X110032800Y-103911400D02*
X110032800Y-112242600D01*
X101193472Y-108077000D02*
G75*
G03X101193472Y-108077000I-2514472J0D01*
G01*
X103251000Y-102743000D02*
X95250000Y-102743000D01*
X95250000Y-102743000D02*
X95250000Y-113411000D01*
X95250000Y-113411000D02*
X103251000Y-113411000D01*
X111760000Y-102743000D02*
X103251000Y-102743000D01*
X103251000Y-113411000D02*
X111760000Y-113411000D01*
X111760000Y-108077000D02*
X111760000Y-113411000D01*
X111760000Y-108077000D02*
X111760000Y-102743000D01*
X111760000Y-127127000D02*
X113030000Y-127127000D01*
X111760000Y-124587000D02*
X113030000Y-124587000D01*
X111760000Y-122047000D02*
X113030000Y-122047000D01*
X103225600Y-120421400D02*
X103225600Y-119227600D01*
X103251000Y-128778000D02*
X103251000Y-129921000D01*
X110032800Y-128778000D02*
X103276400Y-128778000D01*
X103251000Y-120421400D02*
X110032800Y-120421400D01*
X110032800Y-120421400D02*
X110032800Y-128752600D01*
X101193472Y-124587000D02*
G75*
G03X101193472Y-124587000I-2514472J0D01*
G01*
X103251000Y-119253000D02*
X95250000Y-119253000D01*
X95250000Y-119253000D02*
X95250000Y-129921000D01*
X95250000Y-129921000D02*
X103251000Y-129921000D01*
X111760000Y-119253000D02*
X103251000Y-119253000D01*
X103251000Y-129921000D02*
X111760000Y-129921000D01*
X111760000Y-124587000D02*
X111760000Y-129921000D01*
X111760000Y-124587000D02*
X111760000Y-119253000D01*
D15*
X130175000Y-108077000D02*
X129794000Y-108458000D01*
X129794000Y-108458000D02*
X129794000Y-110617000D01*
X129794000Y-110617000D02*
X130175000Y-110998000D01*
X117094000Y-108077000D02*
X117475000Y-108458000D01*
X117475000Y-108458000D02*
X117475000Y-110617000D01*
X117475000Y-110617000D02*
X117094000Y-110998000D01*
X130175000Y-108077000D02*
X130175000Y-106680000D01*
X117094000Y-110998000D02*
X117094000Y-127762000D01*
X117094000Y-127762000D02*
X130175000Y-127762000D01*
X130175000Y-127762000D02*
X130175000Y-110998000D01*
X117094000Y-106680000D02*
X117094000Y-108077000D01*
D10*
X129794000Y-110617000D02*
X130175000Y-110998000D01*
X129794000Y-108458000D02*
X129794000Y-110617000D01*
X130175000Y-108077000D02*
X129794000Y-108458000D01*
X117094000Y-108077000D02*
X117475000Y-108458000D01*
X117475000Y-108458000D02*
X117475000Y-110617000D01*
X117475000Y-110617000D02*
X117094000Y-110998000D01*
D15*
X117094000Y-106680000D02*
X130175000Y-106680000D01*
D10*
X130175000Y-127762000D02*
X117094000Y-127762000D01*
D14*
X137668000Y-133223000D02*
X131572000Y-133223000D01*
X131572000Y-133223000D02*
X131572000Y-127127000D01*
X131572000Y-127127000D02*
X137668000Y-127127000D01*
X137668000Y-127127000D02*
X137668000Y-133223000D01*
D16*
X135423219Y-130175000D02*
G75*
G03X135423219Y-130175000I-803219J0D01*
G01*
D14*
X139192000Y-127127000D02*
X145288000Y-127127000D01*
X145288000Y-127127000D02*
X145288000Y-133223000D01*
X145288000Y-133223000D02*
X139192000Y-133223000D01*
X139192000Y-133223000D02*
X139192000Y-127127000D01*
D16*
X143043219Y-130175000D02*
G75*
G03X143043219Y-130175000I-803219J0D01*
G01*
D11*
X146685000Y-107950000D02*
X147193000Y-107950000D01*
X154305000Y-107950000D02*
X153797000Y-107950000D01*
X153797000Y-107950000D02*
X153797000Y-106934000D01*
X153797000Y-106934000D02*
X147193000Y-106934000D01*
X147193000Y-106934000D02*
X147193000Y-108966000D01*
X147193000Y-108966000D02*
X153797000Y-108966000D01*
X153797000Y-108966000D02*
X153797000Y-107950000D01*
X147193000Y-107442000D02*
X147701000Y-106934000D01*
X176256990Y-94897695D02*
G75*
G03X176960000Y-94410000I-996990J2187695D01*
G01*
X176256990Y-90522305D02*
G75*
G02X176960000Y-91010000I-996990J-2187695D01*
G01*
X176960000Y-94410000D02*
X176960000Y-91010000D01*
X174266873Y-94894879D02*
G75*
G02X172860000Y-92710000I993127J2184879D01*
G01*
X174266873Y-90525121D02*
G75*
G03X172860000Y-92710000I993127J-2184879D01*
G01*
X172065990Y-94770695D02*
G75*
G03X172769000Y-94283000I-996990J2187695D01*
G01*
X172065990Y-90395305D02*
G75*
G02X172769000Y-90883000I-996990J-2187695D01*
G01*
X172769000Y-94283000D02*
X172769000Y-90883000D01*
X170075873Y-94767879D02*
G75*
G02X168669000Y-92583000I993127J2184879D01*
G01*
X170075873Y-90398121D02*
G75*
G03X168669000Y-92583000I993127J-2184879D01*
G01*
X138430000Y-105664000D02*
X138430000Y-108204000D01*
X139849903Y-105664000D02*
G75*
G03X139849903Y-105664000I-1419903J0D01*
G01*
X187325000Y-91440000D02*
X184785000Y-91440000D01*
X188744903Y-91440000D02*
G75*
G03X188744903Y-91440000I-1419903J0D01*
G01*
X149225000Y-110490000D02*
X151765000Y-110490000D01*
X150644903Y-110490000D02*
G75*
G03X150644903Y-110490000I-1419903J0D01*
G01*
X146050000Y-110490000D02*
X146050000Y-113030000D01*
X147469903Y-110490000D02*
G75*
G03X147469903Y-110490000I-1419903J0D01*
G01*
X149225000Y-113665000D02*
X151765000Y-113665000D01*
X150644903Y-113665000D02*
G75*
G03X150644903Y-113665000I-1419903J0D01*
G01*
X144780000Y-121285000D02*
X144780000Y-123825000D01*
X146199903Y-121285000D02*
G75*
G03X146199903Y-121285000I-1419903J0D01*
G01*
X137160000Y-121285000D02*
X137160000Y-123825000D01*
X138579903Y-121285000D02*
G75*
G03X138579903Y-121285000I-1419903J0D01*
G01*
X161544000Y-109220000D02*
X161544000Y-111760000D01*
X162963903Y-109220000D02*
G75*
G03X162963903Y-109220000I-1419903J0D01*
G01*
X164465000Y-109220000D02*
X164465000Y-111760000D01*
X165884903Y-109220000D02*
G75*
G03X165884903Y-109220000I-1419903J0D01*
G01*
X167386000Y-109220000D02*
X167386000Y-111760000D01*
X168805903Y-109220000D02*
G75*
G03X168805903Y-109220000I-1419903J0D01*
G01*
X170307000Y-109220000D02*
X170307000Y-111760000D01*
X171726903Y-109220000D02*
G75*
G03X171726903Y-109220000I-1419903J0D01*
G01*
X173228000Y-109220000D02*
X173228000Y-111760000D01*
X174647903Y-109220000D02*
G75*
G03X174647903Y-109220000I-1419903J0D01*
G01*
X176149000Y-109220000D02*
X176149000Y-111760000D01*
X177568903Y-109220000D02*
G75*
G03X177568903Y-109220000I-1419903J0D01*
G01*
X179070000Y-109220000D02*
X179070000Y-111760000D01*
X180489903Y-109220000D02*
G75*
G03X180489903Y-109220000I-1419903J0D01*
G01*
X180975000Y-90805000D02*
X178435000Y-90805000D01*
X182394903Y-90805000D02*
G75*
G03X182394903Y-90805000I-1419903J0D01*
G01*
X146050000Y-94615000D02*
X146050000Y-92075000D01*
X147469903Y-94615000D02*
G75*
G03X147469903Y-94615000I-1419903J0D01*
G01*
X179968026Y-93716974D02*
X178171974Y-95513026D01*
X181387929Y-93716974D02*
G75*
G03X181387929Y-93716974I-1419903J0D01*
G01*
X143510000Y-92075000D02*
X143510000Y-94615000D01*
X144929903Y-92075000D02*
G75*
G03X144929903Y-92075000I-1419903J0D01*
G01*
X119253000Y-130302000D02*
X121793000Y-130302000D01*
X120672903Y-130302000D02*
G75*
G03X120672903Y-130302000I-1419903J0D01*
G01*
X189865000Y-104775000D02*
X189865000Y-102235000D01*
X191284903Y-104775000D02*
G75*
G03X191284903Y-104775000I-1419903J0D01*
G01*
X192405000Y-107315000D02*
X189865000Y-107315000D01*
X193824903Y-107315000D02*
G75*
G03X193824903Y-107315000I-1419903J0D01*
G01*
X192405000Y-102235000D02*
X192405000Y-104775000D01*
X193824903Y-102235000D02*
G75*
G03X193824903Y-102235000I-1419903J0D01*
G01*
X184150000Y-93980000D02*
X186690000Y-93980000D01*
X185569903Y-93980000D02*
G75*
G03X185569903Y-93980000I-1419903J0D01*
G01*
X146050000Y-89535000D02*
X146050000Y-86995000D01*
X147469903Y-89535000D02*
G75*
G03X147469903Y-89535000I-1419903J0D01*
G01*
D15*
X160834884Y-114300000D02*
G75*
G03X160834884Y-114300000I-1703884J0D01*
G01*
D13*
X159131000Y-114300000D02*
X159131000Y-109199680D01*
D11*
X199834667Y-125538381D02*
X199501333Y-125062190D01*
X199263238Y-125538381D02*
X199263238Y-124538381D01*
X199644191Y-124538381D01*
X199739429Y-124586000D01*
X199787048Y-124633619D01*
X199834667Y-124728857D01*
X199834667Y-124871714D01*
X199787048Y-124966952D01*
X199739429Y-125014571D01*
X199644191Y-125062190D01*
X199263238Y-125062190D01*
X200263238Y-125014571D02*
X200596572Y-125014571D01*
X200739429Y-125538381D02*
X200263238Y-125538381D01*
X200263238Y-124538381D01*
X200739429Y-124538381D01*
X201501334Y-125014571D02*
X201168000Y-125014571D01*
X201168000Y-125538381D02*
X201168000Y-124538381D01*
X201644191Y-124538381D01*
X202168000Y-124538381D02*
X202168000Y-124776476D01*
X201929905Y-124681238D02*
X202168000Y-124776476D01*
X202406096Y-124681238D01*
X202025143Y-124966952D02*
X202168000Y-124776476D01*
X202310858Y-124966952D01*
X202929905Y-124538381D02*
X202929905Y-124776476D01*
X202691810Y-124681238D02*
X202929905Y-124776476D01*
X203168001Y-124681238D01*
X202787048Y-124966952D02*
X202929905Y-124776476D01*
X203072763Y-124966952D01*
X170513571Y-114261667D02*
X170989762Y-114261667D01*
X170418333Y-114547381D02*
X170751666Y-113547381D01*
X171085000Y-114547381D01*
X171751667Y-114023571D02*
X171418333Y-114023571D01*
X171418333Y-114547381D02*
X171418333Y-113547381D01*
X171894524Y-113547381D01*
X172608810Y-114023571D02*
X172275476Y-114023571D01*
X172275476Y-114547381D02*
X172275476Y-113547381D01*
X172751667Y-113547381D01*
X173656429Y-114547381D02*
X173085000Y-114547381D01*
X173370714Y-114547381D02*
X173370714Y-113547381D01*
X173275476Y-113690238D01*
X173180238Y-113785476D01*
X173085000Y-113833095D01*
D14*
X101463929Y-94615000D02*
X102552500Y-94615000D01*
X102770214Y-94687572D01*
X102915357Y-94832715D01*
X102987929Y-95050429D01*
X102987929Y-95195572D01*
X102987929Y-93091000D02*
X102987929Y-93961857D01*
X102987929Y-93526429D02*
X101463929Y-93526429D01*
X101681643Y-93671572D01*
X101826786Y-93816714D01*
X101899357Y-93961857D01*
X120287869Y-98896714D02*
X118763869Y-98896714D01*
X118763869Y-98533857D01*
X118836440Y-98316142D01*
X118981583Y-98171000D01*
X119126726Y-98098428D01*
X119417011Y-98025857D01*
X119634726Y-98025857D01*
X119925011Y-98098428D01*
X120070154Y-98171000D01*
X120215297Y-98316142D01*
X120287869Y-98533857D01*
X120287869Y-98896714D01*
X120142726Y-96501857D02*
X120215297Y-96574428D01*
X120287869Y-96792142D01*
X120287869Y-96937285D01*
X120215297Y-97155000D01*
X120070154Y-97300142D01*
X119925011Y-97372714D01*
X119634726Y-97445285D01*
X119417011Y-97445285D01*
X119126726Y-97372714D01*
X118981583Y-97300142D01*
X118836440Y-97155000D01*
X118763869Y-96937285D01*
X118763869Y-96792142D01*
X118836440Y-96574428D01*
X118909011Y-96501857D01*
X120433011Y-96211571D02*
X120433011Y-95050428D01*
X120287869Y-94687571D02*
X118763869Y-94687571D01*
X120287869Y-93961857D02*
X118763869Y-93961857D01*
X120287869Y-93091000D01*
X118763869Y-93091000D01*
X120287869Y-91639572D02*
X120287869Y-92365286D01*
X118763869Y-92365286D01*
X119489583Y-91131572D02*
X119489583Y-90623572D01*
X120287869Y-90405858D02*
X120287869Y-91131572D01*
X118763869Y-91131572D01*
X118763869Y-90405858D01*
X118763869Y-89970429D02*
X118763869Y-89099572D01*
X120287869Y-89535001D02*
X118763869Y-89535001D01*
D11*
X190920762Y-108529381D02*
X190587428Y-108053190D01*
X190349333Y-108529381D02*
X190349333Y-107529381D01*
X190730286Y-107529381D01*
X190825524Y-107577000D01*
X190873143Y-107624619D01*
X190920762Y-107719857D01*
X190920762Y-107862714D01*
X190873143Y-107957952D01*
X190825524Y-108005571D01*
X190730286Y-108053190D01*
X190349333Y-108053190D01*
X191206476Y-107529381D02*
X191539809Y-108529381D01*
X191873143Y-107529381D01*
X192730286Y-108529381D02*
X192158857Y-108529381D01*
X192444571Y-108529381D02*
X192444571Y-107529381D01*
X192349333Y-107672238D01*
X192254095Y-107767476D01*
X192158857Y-107815095D01*
X166822381Y-92924238D02*
X166346190Y-93257572D01*
X166822381Y-93495667D02*
X165822381Y-93495667D01*
X165822381Y-93114714D01*
X165870000Y-93019476D01*
X165917619Y-92971857D01*
X166012857Y-92924238D01*
X166155714Y-92924238D01*
X166250952Y-92971857D01*
X166298571Y-93019476D01*
X166346190Y-93114714D01*
X166346190Y-93495667D01*
X165822381Y-92638524D02*
X166822381Y-92305191D01*
X165822381Y-91971857D01*
X165917619Y-91686143D02*
X165870000Y-91638524D01*
X165822381Y-91543286D01*
X165822381Y-91305190D01*
X165870000Y-91209952D01*
X165917619Y-91162333D01*
X166012857Y-91114714D01*
X166108095Y-91114714D01*
X166250952Y-91162333D01*
X166822381Y-91733762D01*
X166822381Y-91114714D01*
X125032381Y-78970095D02*
X124032381Y-78970095D01*
X124032381Y-78732000D01*
X124080000Y-78589142D01*
X124175238Y-78493904D01*
X124270476Y-78446285D01*
X124460952Y-78398666D01*
X124603810Y-78398666D01*
X124794286Y-78446285D01*
X124889524Y-78493904D01*
X124984762Y-78589142D01*
X125032381Y-78732000D01*
X125032381Y-78970095D01*
X125032381Y-77446285D02*
X125032381Y-78017714D01*
X125032381Y-77732000D02*
X124032381Y-77732000D01*
X124175238Y-77827238D01*
X124270476Y-77922476D01*
X124318095Y-78017714D01*
D14*
X198936429Y-89389857D02*
X197412429Y-89389857D01*
X198936429Y-88519000D02*
X198065571Y-89172143D01*
X197412429Y-88519000D02*
X198283286Y-89389857D01*
X197557571Y-87938428D02*
X197485000Y-87865857D01*
X197412429Y-87720714D01*
X197412429Y-87357857D01*
X197485000Y-87212714D01*
X197557571Y-87140143D01*
X197702714Y-87067571D01*
X197847857Y-87067571D01*
X198065571Y-87140143D01*
X198936429Y-88011000D01*
X198936429Y-87067571D01*
X187252429Y-93961857D02*
X185728429Y-93961857D01*
X187252429Y-93308714D02*
X186454143Y-93308714D01*
X186309000Y-93381285D01*
X186236429Y-93526428D01*
X186236429Y-93744143D01*
X186309000Y-93889285D01*
X186381571Y-93961857D01*
X187252429Y-91929857D02*
X186454143Y-91929857D01*
X186309000Y-92002428D01*
X186236429Y-92147571D01*
X186236429Y-92437857D01*
X186309000Y-92583000D01*
X187179857Y-91929857D02*
X187252429Y-92075000D01*
X187252429Y-92437857D01*
X187179857Y-92583000D01*
X187034714Y-92655571D01*
X186889571Y-92655571D01*
X186744429Y-92583000D01*
X186671857Y-92437857D01*
X186671857Y-92075000D01*
X186599286Y-91929857D01*
X187252429Y-91204143D02*
X185728429Y-91204143D01*
X186671857Y-91059000D02*
X187252429Y-90623571D01*
X186236429Y-90623571D02*
X186817000Y-91204143D01*
X187252429Y-89970429D02*
X185728429Y-89970429D01*
X186671857Y-89825286D02*
X187252429Y-89389857D01*
X186236429Y-89389857D02*
X186817000Y-89970429D01*
X187252429Y-88519001D02*
X187179857Y-88664143D01*
X187107286Y-88736715D01*
X186962143Y-88809286D01*
X186526714Y-88809286D01*
X186381571Y-88736715D01*
X186309000Y-88664143D01*
X186236429Y-88519001D01*
X186236429Y-88301286D01*
X186309000Y-88156143D01*
X186381571Y-88083572D01*
X186526714Y-88011001D01*
X186962143Y-88011001D01*
X187107286Y-88083572D01*
X187179857Y-88156143D01*
X187252429Y-88301286D01*
X187252429Y-88519001D01*
X187252429Y-86124143D02*
X187252429Y-85833858D01*
X187179857Y-85688715D01*
X187107286Y-85616143D01*
X186889571Y-85471001D01*
X186599286Y-85398429D01*
X186018714Y-85398429D01*
X185873571Y-85471001D01*
X185801000Y-85543572D01*
X185728429Y-85688715D01*
X185728429Y-85979001D01*
X185801000Y-86124143D01*
X185873571Y-86196715D01*
X186018714Y-86269286D01*
X186381571Y-86269286D01*
X186526714Y-86196715D01*
X186599286Y-86124143D01*
X186671857Y-85979001D01*
X186671857Y-85688715D01*
X186599286Y-85543572D01*
X186526714Y-85471001D01*
X186381571Y-85398429D01*
X185728429Y-84455000D02*
X185728429Y-84309857D01*
X185801000Y-84164714D01*
X185873571Y-84092143D01*
X186018714Y-84019572D01*
X186309000Y-83947000D01*
X186671857Y-83947000D01*
X186962143Y-84019572D01*
X187107286Y-84092143D01*
X187179857Y-84164714D01*
X187252429Y-84309857D01*
X187252429Y-84455000D01*
X187179857Y-84600143D01*
X187107286Y-84672714D01*
X186962143Y-84745286D01*
X186671857Y-84817857D01*
X186309000Y-84817857D01*
X186018714Y-84745286D01*
X185873571Y-84672714D01*
X185801000Y-84600143D01*
X185728429Y-84455000D01*
X185728429Y-83439000D02*
X185728429Y-82423000D01*
X187252429Y-83076143D01*
D11*
X152479476Y-89622381D02*
X153146143Y-90622381D01*
X153146143Y-89622381D02*
X152479476Y-90622381D01*
X153479476Y-89717619D02*
X153527095Y-89670000D01*
X153622333Y-89622381D01*
X153860429Y-89622381D01*
X153955667Y-89670000D01*
X154003286Y-89717619D01*
X154050905Y-89812857D01*
X154050905Y-89908095D01*
X154003286Y-90050952D01*
X153431857Y-90622381D01*
X154050905Y-90622381D01*
X181202381Y-98551905D02*
X182011905Y-98551905D01*
X182107143Y-98504286D01*
X182154762Y-98456667D01*
X182202381Y-98361429D01*
X182202381Y-98170952D01*
X182154762Y-98075714D01*
X182107143Y-98028095D01*
X182011905Y-97980476D01*
X181202381Y-97980476D01*
X181202381Y-97028095D02*
X181202381Y-97504286D01*
X181678571Y-97551905D01*
X181630952Y-97504286D01*
X181583333Y-97409048D01*
X181583333Y-97170952D01*
X181630952Y-97075714D01*
X181678571Y-97028095D01*
X181773810Y-96980476D01*
X182011905Y-96980476D01*
X182107143Y-97028095D01*
X182154762Y-97075714D01*
X182202381Y-97170952D01*
X182202381Y-97409048D01*
X182154762Y-97504286D01*
X182107143Y-97551905D01*
X119255381Y-81550095D02*
X118255381Y-81550095D01*
X118255381Y-81169142D01*
X118303000Y-81073904D01*
X118350619Y-81026285D01*
X118445857Y-80978666D01*
X118588714Y-80978666D01*
X118683952Y-81026285D01*
X118731571Y-81073904D01*
X118779190Y-81169142D01*
X118779190Y-81550095D01*
X119255381Y-80026285D02*
X119255381Y-80597714D01*
X119255381Y-80312000D02*
X118255381Y-80312000D01*
X118398238Y-80407238D01*
X118493476Y-80502476D01*
X118541095Y-80597714D01*
X139632381Y-113773095D02*
X138632381Y-113773095D01*
X138632381Y-113535000D01*
X138680000Y-113392142D01*
X138775238Y-113296904D01*
X138870476Y-113249285D01*
X139060952Y-113201666D01*
X139203810Y-113201666D01*
X139394286Y-113249285D01*
X139489524Y-113296904D01*
X139584762Y-113392142D01*
X139632381Y-113535000D01*
X139632381Y-113773095D01*
X138632381Y-112296904D02*
X138632381Y-112773095D01*
X139108571Y-112820714D01*
X139060952Y-112773095D01*
X139013333Y-112677857D01*
X139013333Y-112439761D01*
X139060952Y-112344523D01*
X139108571Y-112296904D01*
X139203810Y-112249285D01*
X139441905Y-112249285D01*
X139537143Y-112296904D01*
X139584762Y-112344523D01*
X139632381Y-112439761D01*
X139632381Y-112677857D01*
X139584762Y-112773095D01*
X139537143Y-112820714D01*
X140952381Y-109696905D02*
X139952381Y-109696905D01*
X140952381Y-109125476D02*
X140380952Y-109554048D01*
X139952381Y-109125476D02*
X140523810Y-109696905D01*
X158452381Y-112493095D02*
X157452381Y-112493095D01*
X157452381Y-112255000D01*
X157500000Y-112112142D01*
X157595238Y-112016904D01*
X157690476Y-111969285D01*
X157880952Y-111921666D01*
X158023810Y-111921666D01*
X158214286Y-111969285D01*
X158309524Y-112016904D01*
X158404762Y-112112142D01*
X158452381Y-112255000D01*
X158452381Y-112493095D01*
X157785714Y-111064523D02*
X158452381Y-111064523D01*
X157404762Y-111302619D02*
X158119048Y-111540714D01*
X158119048Y-110921666D01*
X157132381Y-115616905D02*
X156132381Y-115616905D01*
X157132381Y-115045476D02*
X156560952Y-115474048D01*
X156132381Y-115045476D02*
X156703810Y-115616905D01*
X149634905Y-89745381D02*
X149634905Y-88745381D01*
X149873000Y-88745381D01*
X150015858Y-88793000D01*
X150111096Y-88888238D01*
X150158715Y-88983476D01*
X150206334Y-89173952D01*
X150206334Y-89316810D01*
X150158715Y-89507286D01*
X150111096Y-89602524D01*
X150015858Y-89697762D01*
X149873000Y-89745381D01*
X149634905Y-89745381D01*
X150539667Y-88745381D02*
X151158715Y-88745381D01*
X150825381Y-89126333D01*
X150968239Y-89126333D01*
X151063477Y-89173952D01*
X151111096Y-89221571D01*
X151158715Y-89316810D01*
X151158715Y-89554905D01*
X151111096Y-89650143D01*
X151063477Y-89697762D01*
X150968239Y-89745381D01*
X150682524Y-89745381D01*
X150587286Y-89697762D01*
X150539667Y-89650143D01*
X146511095Y-88425381D02*
X146511095Y-87425381D01*
X147082524Y-88425381D02*
X146653952Y-87853952D01*
X147082524Y-87425381D02*
X146511095Y-87996810D01*
X122995381Y-132950095D02*
X121995381Y-132950095D01*
X121995381Y-132712000D01*
X122043000Y-132569142D01*
X122138238Y-132473904D01*
X122233476Y-132426285D01*
X122423952Y-132378666D01*
X122566810Y-132378666D01*
X122757286Y-132426285D01*
X122852524Y-132473904D01*
X122947762Y-132569142D01*
X122995381Y-132712000D01*
X122995381Y-132950095D01*
X122090619Y-131997714D02*
X122043000Y-131950095D01*
X121995381Y-131854857D01*
X121995381Y-131616761D01*
X122043000Y-131521523D01*
X122090619Y-131473904D01*
X122185857Y-131426285D01*
X122281095Y-131426285D01*
X122423952Y-131473904D01*
X122995381Y-132045333D01*
X122995381Y-131426285D01*
X124315381Y-128873905D02*
X123315381Y-128873905D01*
X124315381Y-128302476D02*
X123743952Y-128731048D01*
X123315381Y-128302476D02*
X123886810Y-128873905D01*
D17*
X132950857Y-96919143D02*
X132999238Y-96967524D01*
X133047619Y-97112667D01*
X133047619Y-97209429D01*
X132999238Y-97354571D01*
X132902476Y-97451333D01*
X132805714Y-97499714D01*
X132612190Y-97548095D01*
X132467048Y-97548095D01*
X132273524Y-97499714D01*
X132176762Y-97451333D01*
X132080000Y-97354571D01*
X132031619Y-97209429D01*
X132031619Y-97112667D01*
X132080000Y-96967524D01*
X132128381Y-96919143D01*
X132128381Y-96532095D02*
X132080000Y-96483714D01*
X132031619Y-96386952D01*
X132031619Y-96145048D01*
X132080000Y-96048286D01*
X132128381Y-95999905D01*
X132225143Y-95951524D01*
X132321905Y-95951524D01*
X132467048Y-95999905D01*
X133047619Y-96580476D01*
X133047619Y-95951524D01*
X132031619Y-95322571D02*
X132031619Y-95225810D01*
X132080000Y-95129048D01*
X132128381Y-95080667D01*
X132225143Y-95032286D01*
X132418667Y-94983905D01*
X132660571Y-94983905D01*
X132854095Y-95032286D01*
X132950857Y-95080667D01*
X132999238Y-95129048D01*
X133047619Y-95225810D01*
X133047619Y-95322571D01*
X132999238Y-95419333D01*
X132950857Y-95467714D01*
X132854095Y-95516095D01*
X132660571Y-95564476D01*
X132418667Y-95564476D01*
X132225143Y-95516095D01*
X132128381Y-95467714D01*
X132080000Y-95419333D01*
X132031619Y-95322571D01*
X141586857Y-112757857D02*
X141538476Y-112806238D01*
X141393333Y-112854619D01*
X141296571Y-112854619D01*
X141151429Y-112806238D01*
X141054667Y-112709476D01*
X141006286Y-112612714D01*
X140957905Y-112419190D01*
X140957905Y-112274048D01*
X141006286Y-112080524D01*
X141054667Y-111983762D01*
X141151429Y-111887000D01*
X141296571Y-111838619D01*
X141393333Y-111838619D01*
X141538476Y-111887000D01*
X141586857Y-111935381D01*
X142554476Y-112854619D02*
X141973905Y-112854619D01*
X142264191Y-112854619D02*
X142264191Y-111838619D01*
X142167429Y-111983762D01*
X142070667Y-112080524D01*
X141973905Y-112128905D01*
X143038286Y-112854619D02*
X143231810Y-112854619D01*
X143328571Y-112806238D01*
X143376952Y-112757857D01*
X143473714Y-112612714D01*
X143522095Y-112419190D01*
X143522095Y-112032143D01*
X143473714Y-111935381D01*
X143425333Y-111887000D01*
X143328571Y-111838619D01*
X143135048Y-111838619D01*
X143038286Y-111887000D01*
X142989905Y-111935381D01*
X142941524Y-112032143D01*
X142941524Y-112274048D01*
X142989905Y-112370810D01*
X143038286Y-112419190D01*
X143135048Y-112467571D01*
X143328571Y-112467571D01*
X143425333Y-112419190D01*
X143473714Y-112370810D01*
X143522095Y-112274048D01*
X141586857Y-105137857D02*
X141538476Y-105186238D01*
X141393333Y-105234619D01*
X141296571Y-105234619D01*
X141151429Y-105186238D01*
X141054667Y-105089476D01*
X141006286Y-104992714D01*
X140957905Y-104799190D01*
X140957905Y-104654048D01*
X141006286Y-104460524D01*
X141054667Y-104363762D01*
X141151429Y-104267000D01*
X141296571Y-104218619D01*
X141393333Y-104218619D01*
X141538476Y-104267000D01*
X141586857Y-104315381D01*
X142554476Y-105234619D02*
X141973905Y-105234619D01*
X142264191Y-105234619D02*
X142264191Y-104218619D01*
X142167429Y-104363762D01*
X142070667Y-104460524D01*
X141973905Y-104508905D01*
X143135048Y-104654048D02*
X143038286Y-104605667D01*
X142989905Y-104557286D01*
X142941524Y-104460524D01*
X142941524Y-104412143D01*
X142989905Y-104315381D01*
X143038286Y-104267000D01*
X143135048Y-104218619D01*
X143328571Y-104218619D01*
X143425333Y-104267000D01*
X143473714Y-104315381D01*
X143522095Y-104412143D01*
X143522095Y-104460524D01*
X143473714Y-104557286D01*
X143425333Y-104605667D01*
X143328571Y-104654048D01*
X143135048Y-104654048D01*
X143038286Y-104702429D01*
X142989905Y-104750810D01*
X142941524Y-104847571D01*
X142941524Y-105041095D01*
X142989905Y-105137857D01*
X143038286Y-105186238D01*
X143135048Y-105234619D01*
X143328571Y-105234619D01*
X143425333Y-105186238D01*
X143473714Y-105137857D01*
X143522095Y-105041095D01*
X143522095Y-104847571D01*
X143473714Y-104750810D01*
X143425333Y-104702429D01*
X143328571Y-104654048D01*
X156826857Y-104756857D02*
X156778476Y-104805238D01*
X156633333Y-104853619D01*
X156536571Y-104853619D01*
X156391429Y-104805238D01*
X156294667Y-104708476D01*
X156246286Y-104611714D01*
X156197905Y-104418190D01*
X156197905Y-104273048D01*
X156246286Y-104079524D01*
X156294667Y-103982762D01*
X156391429Y-103886000D01*
X156536571Y-103837619D01*
X156633333Y-103837619D01*
X156778476Y-103886000D01*
X156826857Y-103934381D01*
X157794476Y-104853619D02*
X157213905Y-104853619D01*
X157504191Y-104853619D02*
X157504191Y-103837619D01*
X157407429Y-103982762D01*
X157310667Y-104079524D01*
X157213905Y-104127905D01*
X158133143Y-103837619D02*
X158810476Y-103837619D01*
X158375048Y-104853619D01*
X149714857Y-94342857D02*
X149666476Y-94391238D01*
X149521333Y-94439619D01*
X149424571Y-94439619D01*
X149279429Y-94391238D01*
X149182667Y-94294476D01*
X149134286Y-94197714D01*
X149085905Y-94004190D01*
X149085905Y-93859048D01*
X149134286Y-93665524D01*
X149182667Y-93568762D01*
X149279429Y-93472000D01*
X149424571Y-93423619D01*
X149521333Y-93423619D01*
X149666476Y-93472000D01*
X149714857Y-93520381D01*
X150682476Y-94439619D02*
X150101905Y-94439619D01*
X150392191Y-94439619D02*
X150392191Y-93423619D01*
X150295429Y-93568762D01*
X150198667Y-93665524D01*
X150101905Y-93713905D01*
X151553333Y-93423619D02*
X151359810Y-93423619D01*
X151263048Y-93472000D01*
X151214667Y-93520381D01*
X151117905Y-93665524D01*
X151069524Y-93859048D01*
X151069524Y-94246095D01*
X151117905Y-94342857D01*
X151166286Y-94391238D01*
X151263048Y-94439619D01*
X151456571Y-94439619D01*
X151553333Y-94391238D01*
X151601714Y-94342857D01*
X151650095Y-94246095D01*
X151650095Y-94004190D01*
X151601714Y-93907429D01*
X151553333Y-93859048D01*
X151456571Y-93810667D01*
X151263048Y-93810667D01*
X151166286Y-93859048D01*
X151117905Y-93907429D01*
X151069524Y-94004190D01*
X155175857Y-94342857D02*
X155127476Y-94391238D01*
X154982333Y-94439619D01*
X154885571Y-94439619D01*
X154740429Y-94391238D01*
X154643667Y-94294476D01*
X154595286Y-94197714D01*
X154546905Y-94004190D01*
X154546905Y-93859048D01*
X154595286Y-93665524D01*
X154643667Y-93568762D01*
X154740429Y-93472000D01*
X154885571Y-93423619D01*
X154982333Y-93423619D01*
X155127476Y-93472000D01*
X155175857Y-93520381D01*
X156143476Y-94439619D02*
X155562905Y-94439619D01*
X155853191Y-94439619D02*
X155853191Y-93423619D01*
X155756429Y-93568762D01*
X155659667Y-93665524D01*
X155562905Y-93713905D01*
X157062714Y-93423619D02*
X156578905Y-93423619D01*
X156530524Y-93907429D01*
X156578905Y-93859048D01*
X156675667Y-93810667D01*
X156917571Y-93810667D01*
X157014333Y-93859048D01*
X157062714Y-93907429D01*
X157111095Y-94004190D01*
X157111095Y-94246095D01*
X157062714Y-94342857D01*
X157014333Y-94391238D01*
X156917571Y-94439619D01*
X156675667Y-94439619D01*
X156578905Y-94391238D01*
X156530524Y-94342857D01*
X137776857Y-104121857D02*
X137728476Y-104170238D01*
X137583333Y-104218619D01*
X137486571Y-104218619D01*
X137341429Y-104170238D01*
X137244667Y-104073476D01*
X137196286Y-103976714D01*
X137147905Y-103783190D01*
X137147905Y-103638048D01*
X137196286Y-103444524D01*
X137244667Y-103347762D01*
X137341429Y-103251000D01*
X137486571Y-103202619D01*
X137583333Y-103202619D01*
X137728476Y-103251000D01*
X137776857Y-103299381D01*
X138744476Y-104218619D02*
X138163905Y-104218619D01*
X138454191Y-104218619D02*
X138454191Y-103202619D01*
X138357429Y-103347762D01*
X138260667Y-103444524D01*
X138163905Y-103492905D01*
X139083143Y-103202619D02*
X139712095Y-103202619D01*
X139373429Y-103589667D01*
X139518571Y-103589667D01*
X139615333Y-103638048D01*
X139663714Y-103686429D01*
X139712095Y-103783190D01*
X139712095Y-104025095D01*
X139663714Y-104121857D01*
X139615333Y-104170238D01*
X139518571Y-104218619D01*
X139228286Y-104218619D01*
X139131524Y-104170238D01*
X139083143Y-104121857D01*
X113519857Y-134474857D02*
X113471476Y-134523238D01*
X113326333Y-134571619D01*
X113229571Y-134571619D01*
X113084429Y-134523238D01*
X112987667Y-134426476D01*
X112939286Y-134329714D01*
X112890905Y-134136190D01*
X112890905Y-133991048D01*
X112939286Y-133797524D01*
X112987667Y-133700762D01*
X113084429Y-133604000D01*
X113229571Y-133555619D01*
X113326333Y-133555619D01*
X113471476Y-133604000D01*
X113519857Y-133652381D01*
X114487476Y-134571619D02*
X113906905Y-134571619D01*
X114197191Y-134571619D02*
X114197191Y-133555619D01*
X114100429Y-133700762D01*
X114003667Y-133797524D01*
X113906905Y-133845905D01*
X114874524Y-133652381D02*
X114922905Y-133604000D01*
X115019667Y-133555619D01*
X115261571Y-133555619D01*
X115358333Y-133604000D01*
X115406714Y-133652381D01*
X115455095Y-133749143D01*
X115455095Y-133845905D01*
X115406714Y-133991048D01*
X114826143Y-134571619D01*
X115455095Y-134571619D01*
X137776857Y-106915857D02*
X137728476Y-106964238D01*
X137583333Y-107012619D01*
X137486571Y-107012619D01*
X137341429Y-106964238D01*
X137244667Y-106867476D01*
X137196286Y-106770714D01*
X137147905Y-106577190D01*
X137147905Y-106432048D01*
X137196286Y-106238524D01*
X137244667Y-106141762D01*
X137341429Y-106045000D01*
X137486571Y-105996619D01*
X137583333Y-105996619D01*
X137728476Y-106045000D01*
X137776857Y-106093381D01*
X138744476Y-107012619D02*
X138163905Y-107012619D01*
X138454191Y-107012619D02*
X138454191Y-105996619D01*
X138357429Y-106141762D01*
X138260667Y-106238524D01*
X138163905Y-106286905D01*
X139712095Y-107012619D02*
X139131524Y-107012619D01*
X139421810Y-107012619D02*
X139421810Y-105996619D01*
X139325048Y-106141762D01*
X139228286Y-106238524D01*
X139131524Y-106286905D01*
X171177857Y-94252143D02*
X171226238Y-94300524D01*
X171274619Y-94445667D01*
X171274619Y-94542429D01*
X171226238Y-94687571D01*
X171129476Y-94784333D01*
X171032714Y-94832714D01*
X170839190Y-94881095D01*
X170694048Y-94881095D01*
X170500524Y-94832714D01*
X170403762Y-94784333D01*
X170307000Y-94687571D01*
X170258619Y-94542429D01*
X170258619Y-94445667D01*
X170307000Y-94300524D01*
X170355381Y-94252143D01*
X171274619Y-93284524D02*
X171274619Y-93865095D01*
X171274619Y-93574809D02*
X170258619Y-93574809D01*
X170403762Y-93671571D01*
X170500524Y-93768333D01*
X170548905Y-93865095D01*
X170258619Y-92655571D02*
X170258619Y-92558810D01*
X170307000Y-92462048D01*
X170355381Y-92413667D01*
X170452143Y-92365286D01*
X170645667Y-92316905D01*
X170887571Y-92316905D01*
X171081095Y-92365286D01*
X171177857Y-92413667D01*
X171226238Y-92462048D01*
X171274619Y-92558810D01*
X171274619Y-92655571D01*
X171226238Y-92752333D01*
X171177857Y-92800714D01*
X171081095Y-92849095D01*
X170887571Y-92897476D01*
X170645667Y-92897476D01*
X170452143Y-92849095D01*
X170355381Y-92800714D01*
X170307000Y-92752333D01*
X170258619Y-92655571D01*
X114003667Y-123044857D02*
X113955286Y-123093238D01*
X113810143Y-123141619D01*
X113713381Y-123141619D01*
X113568239Y-123093238D01*
X113471477Y-122996476D01*
X113423096Y-122899714D01*
X113374715Y-122706190D01*
X113374715Y-122561048D01*
X113423096Y-122367524D01*
X113471477Y-122270762D01*
X113568239Y-122174000D01*
X113713381Y-122125619D01*
X113810143Y-122125619D01*
X113955286Y-122174000D01*
X114003667Y-122222381D01*
X114487477Y-123141619D02*
X114681001Y-123141619D01*
X114777762Y-123093238D01*
X114826143Y-123044857D01*
X114922905Y-122899714D01*
X114971286Y-122706190D01*
X114971286Y-122319143D01*
X114922905Y-122222381D01*
X114874524Y-122174000D01*
X114777762Y-122125619D01*
X114584239Y-122125619D01*
X114487477Y-122174000D01*
X114439096Y-122222381D01*
X114390715Y-122319143D01*
X114390715Y-122561048D01*
X114439096Y-122657810D01*
X114487477Y-122706190D01*
X114584239Y-122754571D01*
X114777762Y-122754571D01*
X114874524Y-122706190D01*
X114922905Y-122657810D01*
X114971286Y-122561048D01*
X162771667Y-104756857D02*
X162723286Y-104805238D01*
X162578143Y-104853619D01*
X162481381Y-104853619D01*
X162336239Y-104805238D01*
X162239477Y-104708476D01*
X162191096Y-104611714D01*
X162142715Y-104418190D01*
X162142715Y-104273048D01*
X162191096Y-104079524D01*
X162239477Y-103982762D01*
X162336239Y-103886000D01*
X162481381Y-103837619D01*
X162578143Y-103837619D01*
X162723286Y-103886000D01*
X162771667Y-103934381D01*
X163352239Y-104273048D02*
X163255477Y-104224667D01*
X163207096Y-104176286D01*
X163158715Y-104079524D01*
X163158715Y-104031143D01*
X163207096Y-103934381D01*
X163255477Y-103886000D01*
X163352239Y-103837619D01*
X163545762Y-103837619D01*
X163642524Y-103886000D01*
X163690905Y-103934381D01*
X163739286Y-104031143D01*
X163739286Y-104079524D01*
X163690905Y-104176286D01*
X163642524Y-104224667D01*
X163545762Y-104273048D01*
X163352239Y-104273048D01*
X163255477Y-104321429D01*
X163207096Y-104369810D01*
X163158715Y-104466571D01*
X163158715Y-104660095D01*
X163207096Y-104756857D01*
X163255477Y-104805238D01*
X163352239Y-104853619D01*
X163545762Y-104853619D01*
X163642524Y-104805238D01*
X163690905Y-104756857D01*
X163739286Y-104660095D01*
X163739286Y-104466571D01*
X163690905Y-104369810D01*
X163642524Y-104321429D01*
X163545762Y-104273048D01*
X114003667Y-118599857D02*
X113955286Y-118648238D01*
X113810143Y-118696619D01*
X113713381Y-118696619D01*
X113568239Y-118648238D01*
X113471477Y-118551476D01*
X113423096Y-118454714D01*
X113374715Y-118261190D01*
X113374715Y-118116048D01*
X113423096Y-117922524D01*
X113471477Y-117825762D01*
X113568239Y-117729000D01*
X113713381Y-117680619D01*
X113810143Y-117680619D01*
X113955286Y-117729000D01*
X114003667Y-117777381D01*
X114342334Y-117680619D02*
X115019667Y-117680619D01*
X114584239Y-118696619D01*
X183472667Y-104121857D02*
X183424286Y-104170238D01*
X183279143Y-104218619D01*
X183182381Y-104218619D01*
X183037239Y-104170238D01*
X182940477Y-104073476D01*
X182892096Y-103976714D01*
X182843715Y-103783190D01*
X182843715Y-103638048D01*
X182892096Y-103444524D01*
X182940477Y-103347762D01*
X183037239Y-103251000D01*
X183182381Y-103202619D01*
X183279143Y-103202619D01*
X183424286Y-103251000D01*
X183472667Y-103299381D01*
X184343524Y-103202619D02*
X184150001Y-103202619D01*
X184053239Y-103251000D01*
X184004858Y-103299381D01*
X183908096Y-103444524D01*
X183859715Y-103638048D01*
X183859715Y-104025095D01*
X183908096Y-104121857D01*
X183956477Y-104170238D01*
X184053239Y-104218619D01*
X184246762Y-104218619D01*
X184343524Y-104170238D01*
X184391905Y-104121857D01*
X184440286Y-104025095D01*
X184440286Y-103783190D01*
X184391905Y-103686429D01*
X184343524Y-103638048D01*
X184246762Y-103589667D01*
X184053239Y-103589667D01*
X183956477Y-103638048D01*
X183908096Y-103686429D01*
X183859715Y-103783190D01*
X114003667Y-104629857D02*
X113955286Y-104678238D01*
X113810143Y-104726619D01*
X113713381Y-104726619D01*
X113568239Y-104678238D01*
X113471477Y-104581476D01*
X113423096Y-104484714D01*
X113374715Y-104291190D01*
X113374715Y-104146048D01*
X113423096Y-103952524D01*
X113471477Y-103855762D01*
X113568239Y-103759000D01*
X113713381Y-103710619D01*
X113810143Y-103710619D01*
X113955286Y-103759000D01*
X114003667Y-103807381D01*
X114874524Y-104049286D02*
X114874524Y-104726619D01*
X114632620Y-103662238D02*
X114390715Y-104387952D01*
X115019667Y-104387952D01*
X182710667Y-96247857D02*
X182662286Y-96296238D01*
X182517143Y-96344619D01*
X182420381Y-96344619D01*
X182275239Y-96296238D01*
X182178477Y-96199476D01*
X182130096Y-96102714D01*
X182081715Y-95909190D01*
X182081715Y-95764048D01*
X182130096Y-95570524D01*
X182178477Y-95473762D01*
X182275239Y-95377000D01*
X182420381Y-95328619D01*
X182517143Y-95328619D01*
X182662286Y-95377000D01*
X182710667Y-95425381D01*
X183049334Y-95328619D02*
X183678286Y-95328619D01*
X183339620Y-95715667D01*
X183484762Y-95715667D01*
X183581524Y-95764048D01*
X183629905Y-95812429D01*
X183678286Y-95909190D01*
X183678286Y-96151095D01*
X183629905Y-96247857D01*
X183581524Y-96296238D01*
X183484762Y-96344619D01*
X183194477Y-96344619D01*
X183097715Y-96296238D01*
X183049334Y-96247857D01*
X182710667Y-93707857D02*
X182662286Y-93756238D01*
X182517143Y-93804619D01*
X182420381Y-93804619D01*
X182275239Y-93756238D01*
X182178477Y-93659476D01*
X182130096Y-93562714D01*
X182081715Y-93369190D01*
X182081715Y-93224048D01*
X182130096Y-93030524D01*
X182178477Y-92933762D01*
X182275239Y-92837000D01*
X182420381Y-92788619D01*
X182517143Y-92788619D01*
X182662286Y-92837000D01*
X182710667Y-92885381D01*
X183097715Y-92885381D02*
X183146096Y-92837000D01*
X183242858Y-92788619D01*
X183484762Y-92788619D01*
X183581524Y-92837000D01*
X183629905Y-92885381D01*
X183678286Y-92982143D01*
X183678286Y-93078905D01*
X183629905Y-93224048D01*
X183049334Y-93804619D01*
X183678286Y-93804619D01*
X183242857Y-98594333D02*
X183291238Y-98642714D01*
X183339619Y-98787857D01*
X183339619Y-98884619D01*
X183291238Y-99029761D01*
X183194476Y-99126523D01*
X183097714Y-99174904D01*
X182904190Y-99223285D01*
X182759048Y-99223285D01*
X182565524Y-99174904D01*
X182468762Y-99126523D01*
X182372000Y-99029761D01*
X182323619Y-98884619D01*
X182323619Y-98787857D01*
X182372000Y-98642714D01*
X182420381Y-98594333D01*
X183339619Y-97626714D02*
X183339619Y-98207285D01*
X183339619Y-97916999D02*
X182323619Y-97916999D01*
X182468762Y-98013761D01*
X182565524Y-98110523D01*
X182613905Y-98207285D01*
D11*
X171283334Y-100655381D02*
X170950000Y-100179190D01*
X170711905Y-100655381D02*
X170711905Y-99655381D01*
X171092858Y-99655381D01*
X171188096Y-99703000D01*
X171235715Y-99750619D01*
X171283334Y-99845857D01*
X171283334Y-99988714D01*
X171235715Y-100083952D01*
X171188096Y-100131571D01*
X171092858Y-100179190D01*
X170711905Y-100179190D01*
X172140477Y-99655381D02*
X171950000Y-99655381D01*
X171854762Y-99703000D01*
X171807143Y-99750619D01*
X171711905Y-99893476D01*
X171664286Y-100083952D01*
X171664286Y-100464905D01*
X171711905Y-100560143D01*
X171759524Y-100607762D01*
X171854762Y-100655381D01*
X172045239Y-100655381D01*
X172140477Y-100607762D01*
X172188096Y-100560143D01*
X172235715Y-100464905D01*
X172235715Y-100226810D01*
X172188096Y-100131571D01*
X172140477Y-100083952D01*
X172045239Y-100036333D01*
X171854762Y-100036333D01*
X171759524Y-100083952D01*
X171711905Y-100131571D01*
X171664286Y-100226810D01*
X92144601Y-108389325D02*
X92954125Y-108389325D01*
X93049363Y-108341706D01*
X93096982Y-108294087D01*
X93144601Y-108198849D01*
X93144601Y-108008372D01*
X93096982Y-107913134D01*
X93049363Y-107865515D01*
X92954125Y-107817896D01*
X92144601Y-107817896D01*
X92239839Y-107389325D02*
X92192220Y-107341706D01*
X92144601Y-107246468D01*
X92144601Y-107008372D01*
X92192220Y-106913134D01*
X92239839Y-106865515D01*
X92335077Y-106817896D01*
X92430315Y-106817896D01*
X92573172Y-106865515D01*
X93144601Y-107436944D01*
X93144601Y-106817896D01*
X102687381Y-117005572D02*
X101687381Y-117005572D01*
X102401667Y-116672238D01*
X101687381Y-116338905D01*
X102687381Y-116338905D01*
X102687381Y-115719858D02*
X102639762Y-115815096D01*
X102592143Y-115862715D01*
X102496905Y-115910334D01*
X102211190Y-115910334D01*
X102115952Y-115862715D01*
X102068333Y-115815096D01*
X102020714Y-115719858D01*
X102020714Y-115577000D01*
X102068333Y-115481762D01*
X102115952Y-115434143D01*
X102211190Y-115386524D01*
X102496905Y-115386524D01*
X102592143Y-115434143D01*
X102639762Y-115481762D01*
X102687381Y-115577000D01*
X102687381Y-115719858D01*
X102020714Y-114529381D02*
X102687381Y-114529381D01*
X102020714Y-114957953D02*
X102544524Y-114957953D01*
X102639762Y-114910334D01*
X102687381Y-114815096D01*
X102687381Y-114672238D01*
X102639762Y-114577000D01*
X102592143Y-114529381D01*
X102020714Y-114053191D02*
X102687381Y-114053191D01*
X102115952Y-114053191D02*
X102068333Y-114005572D01*
X102020714Y-113910334D01*
X102020714Y-113767476D01*
X102068333Y-113672238D01*
X102163571Y-113624619D01*
X102687381Y-113624619D01*
X102020714Y-113291286D02*
X102020714Y-112910334D01*
X101687381Y-113148429D02*
X102544524Y-113148429D01*
X102639762Y-113100810D01*
X102687381Y-113005572D01*
X102687381Y-112910334D01*
X102163571Y-111481761D02*
X102211190Y-111338904D01*
X102258810Y-111291285D01*
X102354048Y-111243666D01*
X102496905Y-111243666D01*
X102592143Y-111291285D01*
X102639762Y-111338904D01*
X102687381Y-111434142D01*
X102687381Y-111815095D01*
X101687381Y-111815095D01*
X101687381Y-111481761D01*
X101735000Y-111386523D01*
X101782619Y-111338904D01*
X101877857Y-111291285D01*
X101973095Y-111291285D01*
X102068333Y-111338904D01*
X102115952Y-111386523D01*
X102163571Y-111481761D01*
X102163571Y-111815095D01*
X102687381Y-110386523D02*
X102163571Y-110386523D01*
X102068333Y-110434142D01*
X102020714Y-110529380D01*
X102020714Y-110719857D01*
X102068333Y-110815095D01*
X102639762Y-110386523D02*
X102687381Y-110481761D01*
X102687381Y-110719857D01*
X102639762Y-110815095D01*
X102544524Y-110862714D01*
X102449286Y-110862714D01*
X102354048Y-110815095D01*
X102306429Y-110719857D01*
X102306429Y-110481761D01*
X102258810Y-110386523D01*
X102639762Y-109481761D02*
X102687381Y-109576999D01*
X102687381Y-109767476D01*
X102639762Y-109862714D01*
X102592143Y-109910333D01*
X102496905Y-109957952D01*
X102211190Y-109957952D01*
X102115952Y-109910333D01*
X102068333Y-109862714D01*
X102020714Y-109767476D01*
X102020714Y-109576999D01*
X102068333Y-109481761D01*
X102687381Y-109053190D02*
X101687381Y-109053190D01*
X102306429Y-108957952D02*
X102687381Y-108672237D01*
X102020714Y-108672237D02*
X102401667Y-109053190D01*
X102639762Y-108291285D02*
X102687381Y-108196047D01*
X102687381Y-108005571D01*
X102639762Y-107910332D01*
X102544524Y-107862713D01*
X102496905Y-107862713D01*
X102401667Y-107910332D01*
X102354048Y-108005571D01*
X102354048Y-108148428D01*
X102306429Y-108243666D01*
X102211190Y-108291285D01*
X102163571Y-108291285D01*
X102068333Y-108243666D01*
X102020714Y-108148428D01*
X102020714Y-108005571D01*
X102068333Y-107910332D01*
X102687381Y-107434142D02*
X102020714Y-107434142D01*
X101687381Y-107434142D02*
X101735000Y-107481761D01*
X101782619Y-107434142D01*
X101735000Y-107386523D01*
X101687381Y-107434142D01*
X101782619Y-107434142D01*
X102687381Y-106529380D02*
X101687381Y-106529380D01*
X102639762Y-106529380D02*
X102687381Y-106624618D01*
X102687381Y-106815095D01*
X102639762Y-106910333D01*
X102592143Y-106957952D01*
X102496905Y-107005571D01*
X102211190Y-107005571D01*
X102115952Y-106957952D01*
X102068333Y-106910333D01*
X102020714Y-106815095D01*
X102020714Y-106624618D01*
X102068333Y-106529380D01*
X102639762Y-105672237D02*
X102687381Y-105767475D01*
X102687381Y-105957952D01*
X102639762Y-106053190D01*
X102544524Y-106100809D01*
X102163571Y-106100809D01*
X102068333Y-106053190D01*
X102020714Y-105957952D01*
X102020714Y-105767475D01*
X102068333Y-105672237D01*
X102163571Y-105624618D01*
X102258810Y-105624618D01*
X102354048Y-106100809D01*
X102020714Y-104005570D02*
X102687381Y-104005570D01*
X102020714Y-104434142D02*
X102544524Y-104434142D01*
X102639762Y-104386523D01*
X102687381Y-104291285D01*
X102687381Y-104148427D01*
X102639762Y-104053189D01*
X102592143Y-104005570D01*
X102020714Y-103529380D02*
X103020714Y-103529380D01*
X102068333Y-103529380D02*
X102020714Y-103434142D01*
X102020714Y-103243665D01*
X102068333Y-103148427D01*
X102115952Y-103100808D01*
X102211190Y-103053189D01*
X102496905Y-103053189D01*
X102592143Y-103100808D01*
X102639762Y-103148427D01*
X102687381Y-103243665D01*
X102687381Y-103434142D01*
X102639762Y-103529380D01*
X102020714Y-102719856D02*
X102687381Y-102529380D01*
X102211190Y-102338903D01*
X102687381Y-102148427D01*
X102020714Y-101957951D01*
X102687381Y-101148427D02*
X102163571Y-101148427D01*
X102068333Y-101196046D01*
X102020714Y-101291284D01*
X102020714Y-101481761D01*
X102068333Y-101576999D01*
X102639762Y-101148427D02*
X102687381Y-101243665D01*
X102687381Y-101481761D01*
X102639762Y-101576999D01*
X102544524Y-101624618D01*
X102449286Y-101624618D01*
X102354048Y-101576999D01*
X102306429Y-101481761D01*
X102306429Y-101243665D01*
X102258810Y-101148427D01*
X102687381Y-100672237D02*
X102020714Y-100672237D01*
X102211190Y-100672237D02*
X102115952Y-100624618D01*
X102068333Y-100576999D01*
X102020714Y-100481761D01*
X102020714Y-100386522D01*
X102687381Y-99624617D02*
X101687381Y-99624617D01*
X102639762Y-99624617D02*
X102687381Y-99719855D01*
X102687381Y-99910332D01*
X102639762Y-100005570D01*
X102592143Y-100053189D01*
X102496905Y-100100808D01*
X102211190Y-100100808D01*
X102115952Y-100053189D01*
X102068333Y-100005570D01*
X102020714Y-99910332D01*
X102020714Y-99719855D01*
X102068333Y-99624617D01*
X102592143Y-99148427D02*
X102639762Y-99100808D01*
X102687381Y-99148427D01*
X102639762Y-99196046D01*
X102592143Y-99148427D01*
X102687381Y-99148427D01*
X102306429Y-99148427D02*
X101735000Y-99196046D01*
X101687381Y-99148427D01*
X101735000Y-99100808D01*
X102306429Y-99148427D01*
X101687381Y-99148427D01*
X92144601Y-124899325D02*
X92954125Y-124899325D01*
X93049363Y-124851706D01*
X93096982Y-124804087D01*
X93144601Y-124708849D01*
X93144601Y-124518372D01*
X93096982Y-124423134D01*
X93049363Y-124375515D01*
X92954125Y-124327896D01*
X92144601Y-124327896D01*
X92144601Y-123946944D02*
X92144601Y-123327896D01*
X92525553Y-123661230D01*
X92525553Y-123518372D01*
X92573172Y-123423134D01*
X92620791Y-123375515D01*
X92716030Y-123327896D01*
X92954125Y-123327896D01*
X93049363Y-123375515D01*
X93096982Y-123423134D01*
X93144601Y-123518372D01*
X93144601Y-123804087D01*
X93096982Y-123899325D01*
X93049363Y-123946944D01*
X102687381Y-133515572D02*
X101687381Y-133515572D01*
X102401667Y-133182238D01*
X101687381Y-132848905D01*
X102687381Y-132848905D01*
X102687381Y-132229858D02*
X102639762Y-132325096D01*
X102592143Y-132372715D01*
X102496905Y-132420334D01*
X102211190Y-132420334D01*
X102115952Y-132372715D01*
X102068333Y-132325096D01*
X102020714Y-132229858D01*
X102020714Y-132087000D01*
X102068333Y-131991762D01*
X102115952Y-131944143D01*
X102211190Y-131896524D01*
X102496905Y-131896524D01*
X102592143Y-131944143D01*
X102639762Y-131991762D01*
X102687381Y-132087000D01*
X102687381Y-132229858D01*
X102020714Y-131039381D02*
X102687381Y-131039381D01*
X102020714Y-131467953D02*
X102544524Y-131467953D01*
X102639762Y-131420334D01*
X102687381Y-131325096D01*
X102687381Y-131182238D01*
X102639762Y-131087000D01*
X102592143Y-131039381D01*
X102020714Y-130563191D02*
X102687381Y-130563191D01*
X102115952Y-130563191D02*
X102068333Y-130515572D01*
X102020714Y-130420334D01*
X102020714Y-130277476D01*
X102068333Y-130182238D01*
X102163571Y-130134619D01*
X102687381Y-130134619D01*
X102020714Y-129801286D02*
X102020714Y-129420334D01*
X101687381Y-129658429D02*
X102544524Y-129658429D01*
X102639762Y-129610810D01*
X102687381Y-129515572D01*
X102687381Y-129420334D01*
X102163571Y-127991761D02*
X102211190Y-127848904D01*
X102258810Y-127801285D01*
X102354048Y-127753666D01*
X102496905Y-127753666D01*
X102592143Y-127801285D01*
X102639762Y-127848904D01*
X102687381Y-127944142D01*
X102687381Y-128325095D01*
X101687381Y-128325095D01*
X101687381Y-127991761D01*
X101735000Y-127896523D01*
X101782619Y-127848904D01*
X101877857Y-127801285D01*
X101973095Y-127801285D01*
X102068333Y-127848904D01*
X102115952Y-127896523D01*
X102163571Y-127991761D01*
X102163571Y-128325095D01*
X102687381Y-126896523D02*
X102163571Y-126896523D01*
X102068333Y-126944142D01*
X102020714Y-127039380D01*
X102020714Y-127229857D01*
X102068333Y-127325095D01*
X102639762Y-126896523D02*
X102687381Y-126991761D01*
X102687381Y-127229857D01*
X102639762Y-127325095D01*
X102544524Y-127372714D01*
X102449286Y-127372714D01*
X102354048Y-127325095D01*
X102306429Y-127229857D01*
X102306429Y-126991761D01*
X102258810Y-126896523D01*
X102639762Y-125991761D02*
X102687381Y-126086999D01*
X102687381Y-126277476D01*
X102639762Y-126372714D01*
X102592143Y-126420333D01*
X102496905Y-126467952D01*
X102211190Y-126467952D01*
X102115952Y-126420333D01*
X102068333Y-126372714D01*
X102020714Y-126277476D01*
X102020714Y-126086999D01*
X102068333Y-125991761D01*
X102687381Y-125563190D02*
X101687381Y-125563190D01*
X102306429Y-125467952D02*
X102687381Y-125182237D01*
X102020714Y-125182237D02*
X102401667Y-125563190D01*
X102639762Y-124801285D02*
X102687381Y-124706047D01*
X102687381Y-124515571D01*
X102639762Y-124420332D01*
X102544524Y-124372713D01*
X102496905Y-124372713D01*
X102401667Y-124420332D01*
X102354048Y-124515571D01*
X102354048Y-124658428D01*
X102306429Y-124753666D01*
X102211190Y-124801285D01*
X102163571Y-124801285D01*
X102068333Y-124753666D01*
X102020714Y-124658428D01*
X102020714Y-124515571D01*
X102068333Y-124420332D01*
X102687381Y-123944142D02*
X102020714Y-123944142D01*
X101687381Y-123944142D02*
X101735000Y-123991761D01*
X101782619Y-123944142D01*
X101735000Y-123896523D01*
X101687381Y-123944142D01*
X101782619Y-123944142D01*
X102687381Y-123039380D02*
X101687381Y-123039380D01*
X102639762Y-123039380D02*
X102687381Y-123134618D01*
X102687381Y-123325095D01*
X102639762Y-123420333D01*
X102592143Y-123467952D01*
X102496905Y-123515571D01*
X102211190Y-123515571D01*
X102115952Y-123467952D01*
X102068333Y-123420333D01*
X102020714Y-123325095D01*
X102020714Y-123134618D01*
X102068333Y-123039380D01*
X102639762Y-122182237D02*
X102687381Y-122277475D01*
X102687381Y-122467952D01*
X102639762Y-122563190D01*
X102544524Y-122610809D01*
X102163571Y-122610809D01*
X102068333Y-122563190D01*
X102020714Y-122467952D01*
X102020714Y-122277475D01*
X102068333Y-122182237D01*
X102163571Y-122134618D01*
X102258810Y-122134618D01*
X102354048Y-122610809D01*
X102020714Y-120515570D02*
X102687381Y-120515570D01*
X102020714Y-120944142D02*
X102544524Y-120944142D01*
X102639762Y-120896523D01*
X102687381Y-120801285D01*
X102687381Y-120658427D01*
X102639762Y-120563189D01*
X102592143Y-120515570D01*
X102020714Y-120039380D02*
X103020714Y-120039380D01*
X102068333Y-120039380D02*
X102020714Y-119944142D01*
X102020714Y-119753665D01*
X102068333Y-119658427D01*
X102115952Y-119610808D01*
X102211190Y-119563189D01*
X102496905Y-119563189D01*
X102592143Y-119610808D01*
X102639762Y-119658427D01*
X102687381Y-119753665D01*
X102687381Y-119944142D01*
X102639762Y-120039380D01*
X102020714Y-119229856D02*
X102687381Y-119039380D01*
X102211190Y-118848903D01*
X102687381Y-118658427D01*
X102020714Y-118467951D01*
X102687381Y-117658427D02*
X102163571Y-117658427D01*
X102068333Y-117706046D01*
X102020714Y-117801284D01*
X102020714Y-117991761D01*
X102068333Y-118086999D01*
X102639762Y-117658427D02*
X102687381Y-117753665D01*
X102687381Y-117991761D01*
X102639762Y-118086999D01*
X102544524Y-118134618D01*
X102449286Y-118134618D01*
X102354048Y-118086999D01*
X102306429Y-117991761D01*
X102306429Y-117753665D01*
X102258810Y-117658427D01*
X102687381Y-117182237D02*
X102020714Y-117182237D01*
X102211190Y-117182237D02*
X102115952Y-117134618D01*
X102068333Y-117086999D01*
X102020714Y-116991761D01*
X102020714Y-116896522D01*
X102687381Y-116134617D02*
X101687381Y-116134617D01*
X102639762Y-116134617D02*
X102687381Y-116229855D01*
X102687381Y-116420332D01*
X102639762Y-116515570D01*
X102592143Y-116563189D01*
X102496905Y-116610808D01*
X102211190Y-116610808D01*
X102115952Y-116563189D01*
X102068333Y-116515570D01*
X102020714Y-116420332D01*
X102020714Y-116229855D01*
X102068333Y-116134617D01*
X102592143Y-115658427D02*
X102639762Y-115610808D01*
X102687381Y-115658427D01*
X102639762Y-115706046D01*
X102592143Y-115658427D01*
X102687381Y-115658427D01*
X102306429Y-115658427D02*
X101735000Y-115706046D01*
X101687381Y-115658427D01*
X101735000Y-115610808D01*
X102306429Y-115658427D01*
X101687381Y-115658427D01*
X124801334Y-90146143D02*
X124753715Y-90193762D01*
X124610858Y-90241381D01*
X124515620Y-90241381D01*
X124372762Y-90193762D01*
X124277524Y-90098524D01*
X124229905Y-90003286D01*
X124182286Y-89812810D01*
X124182286Y-89669952D01*
X124229905Y-89479476D01*
X124277524Y-89384238D01*
X124372762Y-89289000D01*
X124515620Y-89241381D01*
X124610858Y-89241381D01*
X124753715Y-89289000D01*
X124801334Y-89336619D01*
X125706096Y-89241381D02*
X125229905Y-89241381D01*
X125182286Y-89717571D01*
X125229905Y-89669952D01*
X125325143Y-89622333D01*
X125563239Y-89622333D01*
X125658477Y-89669952D01*
X125706096Y-89717571D01*
X125753715Y-89812810D01*
X125753715Y-90050905D01*
X125706096Y-90146143D01*
X125658477Y-90193762D01*
X125563239Y-90241381D01*
X125325143Y-90241381D01*
X125229905Y-90193762D01*
X125182286Y-90146143D01*
D18*
X132926667Y-135769048D02*
X133108095Y-135829524D01*
X133410476Y-135829524D01*
X133531429Y-135769048D01*
X133591905Y-135708571D01*
X133652381Y-135587619D01*
X133652381Y-135466667D01*
X133591905Y-135345714D01*
X133531429Y-135285238D01*
X133410476Y-135224762D01*
X133168572Y-135164286D01*
X133047619Y-135103810D01*
X132987143Y-135043333D01*
X132926667Y-134922381D01*
X132926667Y-134801429D01*
X132987143Y-134680476D01*
X133047619Y-134620000D01*
X133168572Y-134559524D01*
X133470952Y-134559524D01*
X133652381Y-134620000D01*
X134075715Y-134559524D02*
X134378096Y-135829524D01*
X134620000Y-134922381D01*
X134861905Y-135829524D01*
X135164286Y-134559524D01*
X135587620Y-134680476D02*
X135648096Y-134620000D01*
X135769048Y-134559524D01*
X136071429Y-134559524D01*
X136192382Y-134620000D01*
X136252858Y-134680476D01*
X136313334Y-134801429D01*
X136313334Y-134922381D01*
X136252858Y-135103810D01*
X135527144Y-135829524D01*
X136313334Y-135829524D01*
D13*
X131142619Y-124496286D02*
X131324048Y-124556762D01*
X131384524Y-124617238D01*
X131445000Y-124738190D01*
X131445000Y-124919619D01*
X131384524Y-125040571D01*
X131324048Y-125101048D01*
X131203095Y-125161524D01*
X130719286Y-125161524D01*
X130719286Y-123891524D01*
X131142619Y-123891524D01*
X131263572Y-123952000D01*
X131324048Y-124012476D01*
X131384524Y-124133429D01*
X131384524Y-124254381D01*
X131324048Y-124375333D01*
X131263572Y-124435810D01*
X131142619Y-124496286D01*
X130719286Y-124496286D01*
X131989286Y-123891524D02*
X131989286Y-124919619D01*
X132049762Y-125040571D01*
X132110238Y-125101048D01*
X132231191Y-125161524D01*
X132473095Y-125161524D01*
X132594048Y-125101048D01*
X132654524Y-125040571D01*
X132715000Y-124919619D01*
X132715000Y-123891524D01*
X133138333Y-123891524D02*
X133864048Y-123891524D01*
X133501191Y-125161524D02*
X133501191Y-123891524D01*
X134105952Y-123891524D02*
X134831667Y-123891524D01*
X134468810Y-125161524D02*
X134468810Y-123891524D01*
X135496905Y-123891524D02*
X135738809Y-123891524D01*
X135859762Y-123952000D01*
X135980714Y-124072952D01*
X136041190Y-124314857D01*
X136041190Y-124738190D01*
X135980714Y-124980095D01*
X135859762Y-125101048D01*
X135738809Y-125161524D01*
X135496905Y-125161524D01*
X135375952Y-125101048D01*
X135255000Y-124980095D01*
X135194524Y-124738190D01*
X135194524Y-124314857D01*
X135255000Y-124072952D01*
X135375952Y-123952000D01*
X135496905Y-123891524D01*
X136585476Y-125161524D02*
X136585476Y-123891524D01*
X137311190Y-125161524D01*
X137311190Y-123891524D01*
X138581190Y-125161524D02*
X137855476Y-125161524D01*
X138218333Y-125161524D02*
X138218333Y-123891524D01*
X138097381Y-124072952D01*
X137976428Y-124193905D01*
X137855476Y-124254381D01*
D18*
X140546667Y-125609048D02*
X140728095Y-125669524D01*
X141030476Y-125669524D01*
X141151429Y-125609048D01*
X141211905Y-125548571D01*
X141272381Y-125427619D01*
X141272381Y-125306667D01*
X141211905Y-125185714D01*
X141151429Y-125125238D01*
X141030476Y-125064762D01*
X140788572Y-125004286D01*
X140667619Y-124943810D01*
X140607143Y-124883333D01*
X140546667Y-124762381D01*
X140546667Y-124641429D01*
X140607143Y-124520476D01*
X140667619Y-124460000D01*
X140788572Y-124399524D01*
X141090952Y-124399524D01*
X141272381Y-124460000D01*
X141695715Y-124399524D02*
X141998096Y-125669524D01*
X142240000Y-124762381D01*
X142481905Y-125669524D01*
X142784286Y-124399524D01*
X143147144Y-124399524D02*
X143933334Y-124399524D01*
X143510001Y-124883333D01*
X143691429Y-124883333D01*
X143812382Y-124943810D01*
X143872858Y-125004286D01*
X143933334Y-125125238D01*
X143933334Y-125427619D01*
X143872858Y-125548571D01*
X143812382Y-125609048D01*
X143691429Y-125669524D01*
X143328572Y-125669524D01*
X143207620Y-125609048D01*
X143147144Y-125548571D01*
D13*
X138762619Y-135672286D02*
X138944048Y-135732762D01*
X139004524Y-135793238D01*
X139065000Y-135914190D01*
X139065000Y-136095619D01*
X139004524Y-136216571D01*
X138944048Y-136277048D01*
X138823095Y-136337524D01*
X138339286Y-136337524D01*
X138339286Y-135067524D01*
X138762619Y-135067524D01*
X138883572Y-135128000D01*
X138944048Y-135188476D01*
X139004524Y-135309429D01*
X139004524Y-135430381D01*
X138944048Y-135551333D01*
X138883572Y-135611810D01*
X138762619Y-135672286D01*
X138339286Y-135672286D01*
X139609286Y-135067524D02*
X139609286Y-136095619D01*
X139669762Y-136216571D01*
X139730238Y-136277048D01*
X139851191Y-136337524D01*
X140093095Y-136337524D01*
X140214048Y-136277048D01*
X140274524Y-136216571D01*
X140335000Y-136095619D01*
X140335000Y-135067524D01*
X140758333Y-135067524D02*
X141484048Y-135067524D01*
X141121191Y-136337524D02*
X141121191Y-135067524D01*
X141725952Y-135067524D02*
X142451667Y-135067524D01*
X142088810Y-136337524D02*
X142088810Y-135067524D01*
X143116905Y-135067524D02*
X143358809Y-135067524D01*
X143479762Y-135128000D01*
X143600714Y-135248952D01*
X143661190Y-135490857D01*
X143661190Y-135914190D01*
X143600714Y-136156095D01*
X143479762Y-136277048D01*
X143358809Y-136337524D01*
X143116905Y-136337524D01*
X142995952Y-136277048D01*
X142875000Y-136156095D01*
X142814524Y-135914190D01*
X142814524Y-135490857D01*
X142875000Y-135248952D01*
X142995952Y-135128000D01*
X143116905Y-135067524D01*
X144205476Y-136337524D02*
X144205476Y-135067524D01*
X144931190Y-136337524D01*
X144931190Y-135067524D01*
X145475476Y-135188476D02*
X145535952Y-135128000D01*
X145656904Y-135067524D01*
X145959285Y-135067524D01*
X146080238Y-135128000D01*
X146140714Y-135188476D01*
X146201190Y-135309429D01*
X146201190Y-135430381D01*
X146140714Y-135611810D01*
X145415000Y-136337524D01*
X146201190Y-136337524D01*
D11*
X149852143Y-108529381D02*
X149518809Y-108053190D01*
X149280714Y-108529381D02*
X149280714Y-107529381D01*
X149661667Y-107529381D01*
X149756905Y-107577000D01*
X149804524Y-107624619D01*
X149852143Y-107719857D01*
X149852143Y-107862714D01*
X149804524Y-107957952D01*
X149756905Y-108005571D01*
X149661667Y-108053190D01*
X149280714Y-108053190D01*
X150233095Y-107624619D02*
X150280714Y-107577000D01*
X150375952Y-107529381D01*
X150614048Y-107529381D01*
X150709286Y-107577000D01*
X150756905Y-107624619D01*
X150804524Y-107719857D01*
X150804524Y-107815095D01*
X150756905Y-107957952D01*
X150185476Y-108529381D01*
X150804524Y-108529381D01*
X151661667Y-107529381D02*
X151471190Y-107529381D01*
X151375952Y-107577000D01*
X151328333Y-107624619D01*
X151233095Y-107767476D01*
X151185476Y-107957952D01*
X151185476Y-108338905D01*
X151233095Y-108434143D01*
X151280714Y-108481762D01*
X151375952Y-108529381D01*
X151566429Y-108529381D01*
X151661667Y-108481762D01*
X151709286Y-108434143D01*
X151756905Y-108338905D01*
X151756905Y-108100810D01*
X151709286Y-108005571D01*
X151661667Y-107957952D01*
X151566429Y-107910333D01*
X151375952Y-107910333D01*
X151280714Y-107957952D01*
X151233095Y-108005571D01*
X151185476Y-108100810D01*
X171807619Y-95345238D02*
X171760000Y-95440476D01*
X171664762Y-95535714D01*
X171521905Y-95678571D01*
X171474286Y-95773810D01*
X171474286Y-95869048D01*
X171712381Y-95821429D02*
X171664762Y-95916667D01*
X171569524Y-96011905D01*
X171379048Y-96059524D01*
X171045714Y-96059524D01*
X170855238Y-96011905D01*
X170760000Y-95916667D01*
X170712381Y-95821429D01*
X170712381Y-95630952D01*
X170760000Y-95535714D01*
X170855238Y-95440476D01*
X171045714Y-95392857D01*
X171379048Y-95392857D01*
X171569524Y-95440476D01*
X171664762Y-95535714D01*
X171712381Y-95630952D01*
X171712381Y-95821429D01*
X170807619Y-95011905D02*
X170760000Y-94964286D01*
X170712381Y-94869048D01*
X170712381Y-94630952D01*
X170760000Y-94535714D01*
X170807619Y-94488095D01*
X170902857Y-94440476D01*
X170998095Y-94440476D01*
X171140952Y-94488095D01*
X171712381Y-95059524D01*
X171712381Y-94440476D01*
X167616619Y-95218238D02*
X167569000Y-95313476D01*
X167473762Y-95408714D01*
X167330905Y-95551571D01*
X167283286Y-95646810D01*
X167283286Y-95742048D01*
X167521381Y-95694429D02*
X167473762Y-95789667D01*
X167378524Y-95884905D01*
X167188048Y-95932524D01*
X166854714Y-95932524D01*
X166664238Y-95884905D01*
X166569000Y-95789667D01*
X166521381Y-95694429D01*
X166521381Y-95503952D01*
X166569000Y-95408714D01*
X166664238Y-95313476D01*
X166854714Y-95265857D01*
X167188048Y-95265857D01*
X167378524Y-95313476D01*
X167473762Y-95408714D01*
X167521381Y-95503952D01*
X167521381Y-95694429D01*
X167521381Y-94313476D02*
X167521381Y-94884905D01*
X167521381Y-94599191D02*
X166521381Y-94599191D01*
X166664238Y-94694429D01*
X166759476Y-94789667D01*
X166807095Y-94884905D01*
X136342381Y-106560857D02*
X135866190Y-106894191D01*
X136342381Y-107132286D02*
X135342381Y-107132286D01*
X135342381Y-106751333D01*
X135390000Y-106656095D01*
X135437619Y-106608476D01*
X135532857Y-106560857D01*
X135675714Y-106560857D01*
X135770952Y-106608476D01*
X135818571Y-106656095D01*
X135866190Y-106751333D01*
X135866190Y-107132286D01*
X136342381Y-105608476D02*
X136342381Y-106179905D01*
X136342381Y-105894191D02*
X135342381Y-105894191D01*
X135485238Y-105989429D01*
X135580476Y-106084667D01*
X135628095Y-106179905D01*
X136342381Y-104656095D02*
X136342381Y-105227524D01*
X136342381Y-104941810D02*
X135342381Y-104941810D01*
X135485238Y-105037048D01*
X135580476Y-105132286D01*
X135628095Y-105227524D01*
X186428143Y-89352381D02*
X186094809Y-88876190D01*
X185856714Y-89352381D02*
X185856714Y-88352381D01*
X186237667Y-88352381D01*
X186332905Y-88400000D01*
X186380524Y-88447619D01*
X186428143Y-88542857D01*
X186428143Y-88685714D01*
X186380524Y-88780952D01*
X186332905Y-88828571D01*
X186237667Y-88876190D01*
X185856714Y-88876190D01*
X186809095Y-88447619D02*
X186856714Y-88400000D01*
X186951952Y-88352381D01*
X187190048Y-88352381D01*
X187285286Y-88400000D01*
X187332905Y-88447619D01*
X187380524Y-88542857D01*
X187380524Y-88638095D01*
X187332905Y-88780952D01*
X186761476Y-89352381D01*
X187380524Y-89352381D01*
X187713857Y-88352381D02*
X188380524Y-88352381D01*
X187951952Y-89352381D01*
X148836143Y-113482381D02*
X148502809Y-113006190D01*
X148264714Y-113482381D02*
X148264714Y-112482381D01*
X148645667Y-112482381D01*
X148740905Y-112530000D01*
X148788524Y-112577619D01*
X148836143Y-112672857D01*
X148836143Y-112815714D01*
X148788524Y-112910952D01*
X148740905Y-112958571D01*
X148645667Y-113006190D01*
X148264714Y-113006190D01*
X149217095Y-112577619D02*
X149264714Y-112530000D01*
X149359952Y-112482381D01*
X149598048Y-112482381D01*
X149693286Y-112530000D01*
X149740905Y-112577619D01*
X149788524Y-112672857D01*
X149788524Y-112768095D01*
X149740905Y-112910952D01*
X149169476Y-113482381D01*
X149788524Y-113482381D01*
X150693286Y-112482381D02*
X150217095Y-112482381D01*
X150169476Y-112958571D01*
X150217095Y-112910952D01*
X150312333Y-112863333D01*
X150550429Y-112863333D01*
X150645667Y-112910952D01*
X150693286Y-112958571D01*
X150740905Y-113053810D01*
X150740905Y-113291905D01*
X150693286Y-113387143D01*
X150645667Y-113434762D01*
X150550429Y-113482381D01*
X150312333Y-113482381D01*
X150217095Y-113434762D01*
X150169476Y-113387143D01*
X143962381Y-111386857D02*
X143486190Y-111720191D01*
X143962381Y-111958286D02*
X142962381Y-111958286D01*
X142962381Y-111577333D01*
X143010000Y-111482095D01*
X143057619Y-111434476D01*
X143152857Y-111386857D01*
X143295714Y-111386857D01*
X143390952Y-111434476D01*
X143438571Y-111482095D01*
X143486190Y-111577333D01*
X143486190Y-111958286D01*
X143057619Y-111005905D02*
X143010000Y-110958286D01*
X142962381Y-110863048D01*
X142962381Y-110624952D01*
X143010000Y-110529714D01*
X143057619Y-110482095D01*
X143152857Y-110434476D01*
X143248095Y-110434476D01*
X143390952Y-110482095D01*
X143962381Y-111053524D01*
X143962381Y-110434476D01*
X143295714Y-109577333D02*
X143962381Y-109577333D01*
X142914762Y-109815429D02*
X143629048Y-110053524D01*
X143629048Y-109434476D01*
X148836143Y-116657381D02*
X148502809Y-116181190D01*
X148264714Y-116657381D02*
X148264714Y-115657381D01*
X148645667Y-115657381D01*
X148740905Y-115705000D01*
X148788524Y-115752619D01*
X148836143Y-115847857D01*
X148836143Y-115990714D01*
X148788524Y-116085952D01*
X148740905Y-116133571D01*
X148645667Y-116181190D01*
X148264714Y-116181190D01*
X149217095Y-115752619D02*
X149264714Y-115705000D01*
X149359952Y-115657381D01*
X149598048Y-115657381D01*
X149693286Y-115705000D01*
X149740905Y-115752619D01*
X149788524Y-115847857D01*
X149788524Y-115943095D01*
X149740905Y-116085952D01*
X149169476Y-116657381D01*
X149788524Y-116657381D01*
X150121857Y-115657381D02*
X150740905Y-115657381D01*
X150407571Y-116038333D01*
X150550429Y-116038333D01*
X150645667Y-116085952D01*
X150693286Y-116133571D01*
X150740905Y-116228810D01*
X150740905Y-116466905D01*
X150693286Y-116562143D01*
X150645667Y-116609762D01*
X150550429Y-116657381D01*
X150264714Y-116657381D01*
X150169476Y-116609762D01*
X150121857Y-116562143D01*
X142692381Y-122181857D02*
X142216190Y-122515191D01*
X142692381Y-122753286D02*
X141692381Y-122753286D01*
X141692381Y-122372333D01*
X141740000Y-122277095D01*
X141787619Y-122229476D01*
X141882857Y-122181857D01*
X142025714Y-122181857D01*
X142120952Y-122229476D01*
X142168571Y-122277095D01*
X142216190Y-122372333D01*
X142216190Y-122753286D01*
X141787619Y-121800905D02*
X141740000Y-121753286D01*
X141692381Y-121658048D01*
X141692381Y-121419952D01*
X141740000Y-121324714D01*
X141787619Y-121277095D01*
X141882857Y-121229476D01*
X141978095Y-121229476D01*
X142120952Y-121277095D01*
X142692381Y-121848524D01*
X142692381Y-121229476D01*
X141787619Y-120848524D02*
X141740000Y-120800905D01*
X141692381Y-120705667D01*
X141692381Y-120467571D01*
X141740000Y-120372333D01*
X141787619Y-120324714D01*
X141882857Y-120277095D01*
X141978095Y-120277095D01*
X142120952Y-120324714D01*
X142692381Y-120896143D01*
X142692381Y-120277095D01*
X135072381Y-122181857D02*
X134596190Y-122515191D01*
X135072381Y-122753286D02*
X134072381Y-122753286D01*
X134072381Y-122372333D01*
X134120000Y-122277095D01*
X134167619Y-122229476D01*
X134262857Y-122181857D01*
X134405714Y-122181857D01*
X134500952Y-122229476D01*
X134548571Y-122277095D01*
X134596190Y-122372333D01*
X134596190Y-122753286D01*
X134167619Y-121800905D02*
X134120000Y-121753286D01*
X134072381Y-121658048D01*
X134072381Y-121419952D01*
X134120000Y-121324714D01*
X134167619Y-121277095D01*
X134262857Y-121229476D01*
X134358095Y-121229476D01*
X134500952Y-121277095D01*
X135072381Y-121848524D01*
X135072381Y-121229476D01*
X135072381Y-120277095D02*
X135072381Y-120848524D01*
X135072381Y-120562810D02*
X134072381Y-120562810D01*
X134215238Y-120658048D01*
X134310476Y-120753286D01*
X134358095Y-120848524D01*
X159456381Y-110116857D02*
X158980190Y-110450191D01*
X159456381Y-110688286D02*
X158456381Y-110688286D01*
X158456381Y-110307333D01*
X158504000Y-110212095D01*
X158551619Y-110164476D01*
X158646857Y-110116857D01*
X158789714Y-110116857D01*
X158884952Y-110164476D01*
X158932571Y-110212095D01*
X158980190Y-110307333D01*
X158980190Y-110688286D01*
X159456381Y-109164476D02*
X159456381Y-109735905D01*
X159456381Y-109450191D02*
X158456381Y-109450191D01*
X158599238Y-109545429D01*
X158694476Y-109640667D01*
X158742095Y-109735905D01*
X159456381Y-108688286D02*
X159456381Y-108497810D01*
X159408762Y-108402571D01*
X159361143Y-108354952D01*
X159218286Y-108259714D01*
X159027810Y-108212095D01*
X158646857Y-108212095D01*
X158551619Y-108259714D01*
X158504000Y-108307333D01*
X158456381Y-108402571D01*
X158456381Y-108593048D01*
X158504000Y-108688286D01*
X158551619Y-108735905D01*
X158646857Y-108783524D01*
X158884952Y-108783524D01*
X158980190Y-108735905D01*
X159027810Y-108688286D01*
X159075429Y-108593048D01*
X159075429Y-108402571D01*
X159027810Y-108307333D01*
X158980190Y-108259714D01*
X158884952Y-108212095D01*
X162377381Y-110116857D02*
X161901190Y-110450191D01*
X162377381Y-110688286D02*
X161377381Y-110688286D01*
X161377381Y-110307333D01*
X161425000Y-110212095D01*
X161472619Y-110164476D01*
X161567857Y-110116857D01*
X161710714Y-110116857D01*
X161805952Y-110164476D01*
X161853571Y-110212095D01*
X161901190Y-110307333D01*
X161901190Y-110688286D01*
X162377381Y-109164476D02*
X162377381Y-109735905D01*
X162377381Y-109450191D02*
X161377381Y-109450191D01*
X161520238Y-109545429D01*
X161615476Y-109640667D01*
X161663095Y-109735905D01*
X161805952Y-108593048D02*
X161758333Y-108688286D01*
X161710714Y-108735905D01*
X161615476Y-108783524D01*
X161567857Y-108783524D01*
X161472619Y-108735905D01*
X161425000Y-108688286D01*
X161377381Y-108593048D01*
X161377381Y-108402571D01*
X161425000Y-108307333D01*
X161472619Y-108259714D01*
X161567857Y-108212095D01*
X161615476Y-108212095D01*
X161710714Y-108259714D01*
X161758333Y-108307333D01*
X161805952Y-108402571D01*
X161805952Y-108593048D01*
X161853571Y-108688286D01*
X161901190Y-108735905D01*
X161996429Y-108783524D01*
X162186905Y-108783524D01*
X162282143Y-108735905D01*
X162329762Y-108688286D01*
X162377381Y-108593048D01*
X162377381Y-108402571D01*
X162329762Y-108307333D01*
X162282143Y-108259714D01*
X162186905Y-108212095D01*
X161996429Y-108212095D01*
X161901190Y-108259714D01*
X161853571Y-108307333D01*
X161805952Y-108402571D01*
X165298381Y-110116857D02*
X164822190Y-110450191D01*
X165298381Y-110688286D02*
X164298381Y-110688286D01*
X164298381Y-110307333D01*
X164346000Y-110212095D01*
X164393619Y-110164476D01*
X164488857Y-110116857D01*
X164631714Y-110116857D01*
X164726952Y-110164476D01*
X164774571Y-110212095D01*
X164822190Y-110307333D01*
X164822190Y-110688286D01*
X165298381Y-109164476D02*
X165298381Y-109735905D01*
X165298381Y-109450191D02*
X164298381Y-109450191D01*
X164441238Y-109545429D01*
X164536476Y-109640667D01*
X164584095Y-109735905D01*
X164298381Y-108831143D02*
X164298381Y-108164476D01*
X165298381Y-108593048D01*
X168219381Y-110116857D02*
X167743190Y-110450191D01*
X168219381Y-110688286D02*
X167219381Y-110688286D01*
X167219381Y-110307333D01*
X167267000Y-110212095D01*
X167314619Y-110164476D01*
X167409857Y-110116857D01*
X167552714Y-110116857D01*
X167647952Y-110164476D01*
X167695571Y-110212095D01*
X167743190Y-110307333D01*
X167743190Y-110688286D01*
X168219381Y-109164476D02*
X168219381Y-109735905D01*
X168219381Y-109450191D02*
X167219381Y-109450191D01*
X167362238Y-109545429D01*
X167457476Y-109640667D01*
X167505095Y-109735905D01*
X167219381Y-108307333D02*
X167219381Y-108497810D01*
X167267000Y-108593048D01*
X167314619Y-108640667D01*
X167457476Y-108735905D01*
X167647952Y-108783524D01*
X168028905Y-108783524D01*
X168124143Y-108735905D01*
X168171762Y-108688286D01*
X168219381Y-108593048D01*
X168219381Y-108402571D01*
X168171762Y-108307333D01*
X168124143Y-108259714D01*
X168028905Y-108212095D01*
X167790810Y-108212095D01*
X167695571Y-108259714D01*
X167647952Y-108307333D01*
X167600333Y-108402571D01*
X167600333Y-108593048D01*
X167647952Y-108688286D01*
X167695571Y-108735905D01*
X167790810Y-108783524D01*
X171140381Y-110116857D02*
X170664190Y-110450191D01*
X171140381Y-110688286D02*
X170140381Y-110688286D01*
X170140381Y-110307333D01*
X170188000Y-110212095D01*
X170235619Y-110164476D01*
X170330857Y-110116857D01*
X170473714Y-110116857D01*
X170568952Y-110164476D01*
X170616571Y-110212095D01*
X170664190Y-110307333D01*
X170664190Y-110688286D01*
X171140381Y-109164476D02*
X171140381Y-109735905D01*
X171140381Y-109450191D02*
X170140381Y-109450191D01*
X170283238Y-109545429D01*
X170378476Y-109640667D01*
X170426095Y-109735905D01*
X170140381Y-108259714D02*
X170140381Y-108735905D01*
X170616571Y-108783524D01*
X170568952Y-108735905D01*
X170521333Y-108640667D01*
X170521333Y-108402571D01*
X170568952Y-108307333D01*
X170616571Y-108259714D01*
X170711810Y-108212095D01*
X170949905Y-108212095D01*
X171045143Y-108259714D01*
X171092762Y-108307333D01*
X171140381Y-108402571D01*
X171140381Y-108640667D01*
X171092762Y-108735905D01*
X171045143Y-108783524D01*
X174061381Y-110116857D02*
X173585190Y-110450191D01*
X174061381Y-110688286D02*
X173061381Y-110688286D01*
X173061381Y-110307333D01*
X173109000Y-110212095D01*
X173156619Y-110164476D01*
X173251857Y-110116857D01*
X173394714Y-110116857D01*
X173489952Y-110164476D01*
X173537571Y-110212095D01*
X173585190Y-110307333D01*
X173585190Y-110688286D01*
X174061381Y-109164476D02*
X174061381Y-109735905D01*
X174061381Y-109450191D02*
X173061381Y-109450191D01*
X173204238Y-109545429D01*
X173299476Y-109640667D01*
X173347095Y-109735905D01*
X173394714Y-108307333D02*
X174061381Y-108307333D01*
X173013762Y-108545429D02*
X173728048Y-108783524D01*
X173728048Y-108164476D01*
X176982381Y-110116857D02*
X176506190Y-110450191D01*
X176982381Y-110688286D02*
X175982381Y-110688286D01*
X175982381Y-110307333D01*
X176030000Y-110212095D01*
X176077619Y-110164476D01*
X176172857Y-110116857D01*
X176315714Y-110116857D01*
X176410952Y-110164476D01*
X176458571Y-110212095D01*
X176506190Y-110307333D01*
X176506190Y-110688286D01*
X176982381Y-109164476D02*
X176982381Y-109735905D01*
X176982381Y-109450191D02*
X175982381Y-109450191D01*
X176125238Y-109545429D01*
X176220476Y-109640667D01*
X176268095Y-109735905D01*
X175982381Y-108831143D02*
X175982381Y-108212095D01*
X176363333Y-108545429D01*
X176363333Y-108402571D01*
X176410952Y-108307333D01*
X176458571Y-108259714D01*
X176553810Y-108212095D01*
X176791905Y-108212095D01*
X176887143Y-108259714D01*
X176934762Y-108307333D01*
X176982381Y-108402571D01*
X176982381Y-108688286D01*
X176934762Y-108783524D01*
X176887143Y-108831143D01*
X180078143Y-88717381D02*
X179744809Y-88241190D01*
X179506714Y-88717381D02*
X179506714Y-87717381D01*
X179887667Y-87717381D01*
X179982905Y-87765000D01*
X180030524Y-87812619D01*
X180078143Y-87907857D01*
X180078143Y-88050714D01*
X180030524Y-88145952D01*
X179982905Y-88193571D01*
X179887667Y-88241190D01*
X179506714Y-88241190D01*
X181030524Y-88717381D02*
X180459095Y-88717381D01*
X180744809Y-88717381D02*
X180744809Y-87717381D01*
X180649571Y-87860238D01*
X180554333Y-87955476D01*
X180459095Y-88003095D01*
X181411476Y-87812619D02*
X181459095Y-87765000D01*
X181554333Y-87717381D01*
X181792429Y-87717381D01*
X181887667Y-87765000D01*
X181935286Y-87812619D01*
X181982905Y-87907857D01*
X181982905Y-88003095D01*
X181935286Y-88145952D01*
X181363857Y-88717381D01*
X181982905Y-88717381D01*
X149042381Y-94527666D02*
X148566190Y-94861000D01*
X149042381Y-95099095D02*
X148042381Y-95099095D01*
X148042381Y-94718142D01*
X148090000Y-94622904D01*
X148137619Y-94575285D01*
X148232857Y-94527666D01*
X148375714Y-94527666D01*
X148470952Y-94575285D01*
X148518571Y-94622904D01*
X148566190Y-94718142D01*
X148566190Y-95099095D01*
X149042381Y-94051476D02*
X149042381Y-93861000D01*
X148994762Y-93765761D01*
X148947143Y-93718142D01*
X148804286Y-93622904D01*
X148613810Y-93575285D01*
X148232857Y-93575285D01*
X148137619Y-93622904D01*
X148090000Y-93670523D01*
X148042381Y-93765761D01*
X148042381Y-93956238D01*
X148090000Y-94051476D01*
X148137619Y-94099095D01*
X148232857Y-94146714D01*
X148470952Y-94146714D01*
X148566190Y-94099095D01*
X148613810Y-94051476D01*
X148661429Y-93956238D01*
X148661429Y-93765761D01*
X148613810Y-93670523D01*
X148566190Y-93622904D01*
X148470952Y-93575285D01*
X178194400Y-92538260D02*
X177621979Y-92437245D01*
X177790339Y-92942322D02*
X177083232Y-92235215D01*
X177352606Y-91965840D01*
X177453622Y-91932169D01*
X177520965Y-91932169D01*
X177621980Y-91965840D01*
X177722995Y-92066856D01*
X177756667Y-92167871D01*
X177756667Y-92235214D01*
X177722995Y-92336229D01*
X177453621Y-92605604D01*
X178194399Y-91730138D02*
X178093384Y-91763810D01*
X178026041Y-91763810D01*
X177925026Y-91730138D01*
X177891354Y-91696467D01*
X177857682Y-91595452D01*
X177857682Y-91528108D01*
X177891354Y-91427093D01*
X178026041Y-91292405D01*
X178127057Y-91258734D01*
X178194400Y-91258734D01*
X178295415Y-91292405D01*
X178329087Y-91326077D01*
X178362759Y-91427092D01*
X178362759Y-91494436D01*
X178329087Y-91595451D01*
X178194399Y-91730138D01*
X178160728Y-91831154D01*
X178160728Y-91898497D01*
X178194400Y-91999513D01*
X178329087Y-92134200D01*
X178430102Y-92167871D01*
X178497445Y-92167871D01*
X178598461Y-92134200D01*
X178733148Y-91999512D01*
X178766820Y-91898497D01*
X178766820Y-91831154D01*
X178733148Y-91730138D01*
X178598461Y-91595452D01*
X178497445Y-91561779D01*
X178430102Y-91561779D01*
X178329087Y-91595451D01*
X141422381Y-92495666D02*
X140946190Y-92829000D01*
X141422381Y-93067095D02*
X140422381Y-93067095D01*
X140422381Y-92686142D01*
X140470000Y-92590904D01*
X140517619Y-92543285D01*
X140612857Y-92495666D01*
X140755714Y-92495666D01*
X140850952Y-92543285D01*
X140898571Y-92590904D01*
X140946190Y-92686142D01*
X140946190Y-93067095D01*
X140422381Y-92162333D02*
X140422381Y-91495666D01*
X141422381Y-91924238D01*
X119340334Y-133294381D02*
X119007000Y-132818190D01*
X118768905Y-133294381D02*
X118768905Y-132294381D01*
X119149858Y-132294381D01*
X119245096Y-132342000D01*
X119292715Y-132389619D01*
X119340334Y-132484857D01*
X119340334Y-132627714D01*
X119292715Y-132722952D01*
X119245096Y-132770571D01*
X119149858Y-132818190D01*
X118768905Y-132818190D01*
X120245096Y-132294381D02*
X119768905Y-132294381D01*
X119721286Y-132770571D01*
X119768905Y-132722952D01*
X119864143Y-132675333D01*
X120102239Y-132675333D01*
X120197477Y-132722952D01*
X120245096Y-132770571D01*
X120292715Y-132865810D01*
X120292715Y-133103905D01*
X120245096Y-133199143D01*
X120197477Y-133246762D01*
X120102239Y-133294381D01*
X119864143Y-133294381D01*
X119768905Y-133246762D01*
X119721286Y-133199143D01*
X192857381Y-104687666D02*
X192381190Y-105021000D01*
X192857381Y-105259095D02*
X191857381Y-105259095D01*
X191857381Y-104878142D01*
X191905000Y-104782904D01*
X191952619Y-104735285D01*
X192047857Y-104687666D01*
X192190714Y-104687666D01*
X192285952Y-104735285D01*
X192333571Y-104782904D01*
X192381190Y-104878142D01*
X192381190Y-105259095D01*
X192190714Y-103830523D02*
X192857381Y-103830523D01*
X191809762Y-104068619D02*
X192524048Y-104306714D01*
X192524048Y-103687666D01*
X191984334Y-105227381D02*
X191651000Y-104751190D01*
X191412905Y-105227381D02*
X191412905Y-104227381D01*
X191793858Y-104227381D01*
X191889096Y-104275000D01*
X191936715Y-104322619D01*
X191984334Y-104417857D01*
X191984334Y-104560714D01*
X191936715Y-104655952D01*
X191889096Y-104703571D01*
X191793858Y-104751190D01*
X191412905Y-104751190D01*
X192317667Y-104227381D02*
X192936715Y-104227381D01*
X192603381Y-104608333D01*
X192746239Y-104608333D01*
X192841477Y-104655952D01*
X192889096Y-104703571D01*
X192936715Y-104798810D01*
X192936715Y-105036905D01*
X192889096Y-105132143D01*
X192841477Y-105179762D01*
X192746239Y-105227381D01*
X192460524Y-105227381D01*
X192365286Y-105179762D01*
X192317667Y-105132143D01*
X190317381Y-102655666D02*
X189841190Y-102989000D01*
X190317381Y-103227095D02*
X189317381Y-103227095D01*
X189317381Y-102846142D01*
X189365000Y-102750904D01*
X189412619Y-102703285D01*
X189507857Y-102655666D01*
X189650714Y-102655666D01*
X189745952Y-102703285D01*
X189793571Y-102750904D01*
X189841190Y-102846142D01*
X189841190Y-103227095D01*
X189412619Y-102274714D02*
X189365000Y-102227095D01*
X189317381Y-102131857D01*
X189317381Y-101893761D01*
X189365000Y-101798523D01*
X189412619Y-101750904D01*
X189507857Y-101703285D01*
X189603095Y-101703285D01*
X189745952Y-101750904D01*
X190317381Y-102322333D01*
X190317381Y-101703285D01*
X184237334Y-96972381D02*
X183904000Y-96496190D01*
X183665905Y-96972381D02*
X183665905Y-95972381D01*
X184046858Y-95972381D01*
X184142096Y-96020000D01*
X184189715Y-96067619D01*
X184237334Y-96162857D01*
X184237334Y-96305714D01*
X184189715Y-96400952D01*
X184142096Y-96448571D01*
X184046858Y-96496190D01*
X183665905Y-96496190D01*
X185189715Y-96972381D02*
X184618286Y-96972381D01*
X184904000Y-96972381D02*
X184904000Y-95972381D01*
X184808762Y-96115238D01*
X184713524Y-96210476D01*
X184618286Y-96258095D01*
X149042381Y-89923857D02*
X148566190Y-90257191D01*
X149042381Y-90495286D02*
X148042381Y-90495286D01*
X148042381Y-90114333D01*
X148090000Y-90019095D01*
X148137619Y-89971476D01*
X148232857Y-89923857D01*
X148375714Y-89923857D01*
X148470952Y-89971476D01*
X148518571Y-90019095D01*
X148566190Y-90114333D01*
X148566190Y-90495286D01*
X149042381Y-88971476D02*
X149042381Y-89542905D01*
X149042381Y-89257191D02*
X148042381Y-89257191D01*
X148185238Y-89352429D01*
X148280476Y-89447667D01*
X148328095Y-89542905D01*
X148042381Y-88352429D02*
X148042381Y-88257190D01*
X148090000Y-88161952D01*
X148137619Y-88114333D01*
X148232857Y-88066714D01*
X148423333Y-88019095D01*
X148661429Y-88019095D01*
X148851905Y-88066714D01*
X148947143Y-88114333D01*
X148994762Y-88161952D01*
X149042381Y-88257190D01*
X149042381Y-88352429D01*
X148994762Y-88447667D01*
X148947143Y-88495286D01*
X148851905Y-88542905D01*
X148661429Y-88590524D01*
X148423333Y-88590524D01*
X148232857Y-88542905D01*
X148137619Y-88495286D01*
X148090000Y-88447667D01*
X148042381Y-88352429D01*
D17*
X155762476Y-115116429D02*
X155097238Y-115539762D01*
X155762476Y-115842143D02*
X154365476Y-115842143D01*
X154365476Y-115358334D01*
X154432000Y-115237381D01*
X154498524Y-115176905D01*
X154631571Y-115116429D01*
X154831143Y-115116429D01*
X154964190Y-115176905D01*
X155030714Y-115237381D01*
X155097238Y-115358334D01*
X155097238Y-115842143D01*
X154498524Y-114632619D02*
X154432000Y-114572143D01*
X154365476Y-114451191D01*
X154365476Y-114148810D01*
X154432000Y-114027857D01*
X154498524Y-113967381D01*
X154631571Y-113906905D01*
X154764619Y-113906905D01*
X154964190Y-113967381D01*
X155762476Y-114693095D01*
X155762476Y-113906905D01*
X154365476Y-113120714D02*
X154365476Y-112999762D01*
X154432000Y-112878810D01*
X154498524Y-112818333D01*
X154631571Y-112757857D01*
X154897667Y-112697381D01*
X155230286Y-112697381D01*
X155496381Y-112757857D01*
X155629429Y-112818333D01*
X155695952Y-112878810D01*
X155762476Y-112999762D01*
X155762476Y-113120714D01*
X155695952Y-113241667D01*
X155629429Y-113302143D01*
X155496381Y-113362619D01*
X155230286Y-113423095D01*
X154897667Y-113423095D01*
X154631571Y-113362619D01*
X154498524Y-113302143D01*
X154432000Y-113241667D01*
X154365476Y-113120714D01*
D11*
X199834667Y-76897381D02*
X199501333Y-76421190D01*
X199263238Y-76897381D02*
X199263238Y-75897381D01*
X199644191Y-75897381D01*
X199739429Y-75945000D01*
X199787048Y-75992619D01*
X199834667Y-76087857D01*
X199834667Y-76230714D01*
X199787048Y-76325952D01*
X199739429Y-76373571D01*
X199644191Y-76421190D01*
X199263238Y-76421190D01*
X200263238Y-76373571D02*
X200596572Y-76373571D01*
X200739429Y-76897381D02*
X200263238Y-76897381D01*
X200263238Y-75897381D01*
X200739429Y-75897381D01*
X201501334Y-76373571D02*
X201168000Y-76373571D01*
X201168000Y-76897381D02*
X201168000Y-75897381D01*
X201644191Y-75897381D01*
X202168000Y-75897381D02*
X202168000Y-76135476D01*
X201929905Y-76040238D02*
X202168000Y-76135476D01*
X202406096Y-76040238D01*
X202025143Y-76325952D02*
X202168000Y-76135476D01*
X202310858Y-76325952D01*
X202929905Y-75897381D02*
X202929905Y-76135476D01*
X202691810Y-76040238D02*
X202929905Y-76135476D01*
X203168001Y-76040238D01*
X202787048Y-76325952D02*
X202929905Y-76135476D01*
X203072763Y-76325952D01*
M02*
