G04 #@! TF.FileFunction,Legend,Bot*
%FSLAX46Y46*%
G04 Gerber Fmt 4.6, Leading zero omitted, Abs format (unit mm)*
G04 Created by KiCad (PCBNEW 4.0.2-4+6225~38~ubuntu14.04.1-stable) date Thu 07 Apr 2016 12:32:57 PM ICT*
%MOMM*%
G01*
G04 APERTURE LIST*
%ADD10C,0.100000*%
%ADD11C,0.150000*%
G04 APERTURE END LIST*
D10*
D11*
X146283680Y-99745800D02*
X154884120Y-99745800D01*
X154884120Y-99745800D02*
X154884120Y-102946200D01*
X154884120Y-102946200D02*
X146283680Y-102946200D01*
X146283680Y-102196900D02*
X146283680Y-102946200D01*
X146283680Y-100446840D02*
X146283680Y-99745800D01*
X146283680Y-101645720D02*
X145983960Y-101744780D01*
X146283680Y-101046280D02*
X145983960Y-100947220D01*
X146283680Y-100446840D02*
X146283680Y-102245160D01*
X140992000Y-96793000D02*
G75*
G03X140992000Y-96793000I-100000J0D01*
G01*
X140642000Y-96143000D02*
X140642000Y-96643000D01*
X137742000Y-96143000D02*
X140642000Y-96143000D01*
X137742000Y-96643000D02*
X137742000Y-96143000D01*
X140642000Y-96643000D02*
X137742000Y-96643000D01*
X181229000Y-100965000D02*
X181229000Y-106045000D01*
X181229000Y-106045000D02*
X185801000Y-106045000D01*
X185801000Y-106045000D02*
X185801000Y-100965000D01*
X185801000Y-100965000D02*
X181229000Y-100965000D01*
X182753000Y-100965000D02*
X182753000Y-101473000D01*
X182753000Y-101473000D02*
X184023000Y-101473000D01*
X184023000Y-101473000D02*
X184023000Y-100965000D01*
X181356000Y-82423000D02*
X181356000Y-82423000D01*
X181356000Y-82296000D02*
X181356000Y-82423000D01*
X181356000Y-82423000D02*
X181356000Y-82296000D01*
X187579000Y-89281000D02*
X181356000Y-89281000D01*
X181356000Y-89281000D02*
X181356000Y-85725000D01*
X187579000Y-89281000D02*
X189103000Y-89281000D01*
X189103000Y-89281000D02*
X189103000Y-89281000D01*
X189103000Y-89281000D02*
X189103000Y-89281000D01*
X189103000Y-89281000D02*
X189357000Y-89281000D01*
X189357000Y-89281000D02*
X189357000Y-89281000D01*
X189357000Y-89281000D02*
X189357000Y-89281000D01*
X181356000Y-85725000D02*
X181356000Y-82296000D01*
X181356000Y-82296000D02*
X189357000Y-82296000D01*
X189357000Y-82296000D02*
X189357000Y-89281000D01*
X156335481Y-100287556D02*
X157335481Y-100954223D01*
X156335481Y-100954223D02*
X157335481Y-100287556D01*
X157335481Y-101858985D02*
X157335481Y-101287556D01*
X157335481Y-101573270D02*
X156335481Y-101573270D01*
X156478338Y-101478032D01*
X156573576Y-101382794D01*
X156621195Y-101287556D01*
X141544381Y-95631095D02*
X142353905Y-95631095D01*
X142449143Y-95678714D01*
X142496762Y-95726333D01*
X142544381Y-95821571D01*
X142544381Y-96012048D01*
X142496762Y-96107286D01*
X142449143Y-96154905D01*
X142353905Y-96202524D01*
X141544381Y-96202524D01*
X141877714Y-97107286D02*
X142544381Y-97107286D01*
X141496762Y-96869190D02*
X142211048Y-96631095D01*
X142211048Y-97250143D01*
X181697381Y-102743095D02*
X182506905Y-102743095D01*
X182602143Y-102790714D01*
X182649762Y-102838333D01*
X182697381Y-102933571D01*
X182697381Y-103124048D01*
X182649762Y-103219286D01*
X182602143Y-103266905D01*
X182506905Y-103314524D01*
X181697381Y-103314524D01*
X182697381Y-104314524D02*
X182697381Y-103743095D01*
X182697381Y-104028809D02*
X181697381Y-104028809D01*
X181840238Y-103933571D01*
X181935476Y-103838333D01*
X181983095Y-103743095D01*
X182891679Y-85629762D02*
X182844060Y-85534524D01*
X182748822Y-85439286D01*
X182605965Y-85296429D01*
X182558346Y-85201190D01*
X182558346Y-85105952D01*
X182796441Y-85153571D02*
X182748822Y-85058333D01*
X182653584Y-84963095D01*
X182463108Y-84915476D01*
X182129774Y-84915476D01*
X181939298Y-84963095D01*
X181844060Y-85058333D01*
X181796441Y-85153571D01*
X181796441Y-85344048D01*
X181844060Y-85439286D01*
X181939298Y-85534524D01*
X182129774Y-85582143D01*
X182463108Y-85582143D01*
X182653584Y-85534524D01*
X182748822Y-85439286D01*
X182796441Y-85344048D01*
X182796441Y-85153571D01*
X181796441Y-85915476D02*
X181796441Y-86534524D01*
X182177393Y-86201190D01*
X182177393Y-86344048D01*
X182225012Y-86439286D01*
X182272631Y-86486905D01*
X182367870Y-86534524D01*
X182605965Y-86534524D01*
X182701203Y-86486905D01*
X182748822Y-86439286D01*
X182796441Y-86344048D01*
X182796441Y-86058333D01*
X182748822Y-85963095D01*
X182701203Y-85915476D01*
X188955584Y-81577441D02*
X188955584Y-80577441D01*
X187907965Y-81577441D02*
X188241299Y-81101250D01*
X188479394Y-81577441D02*
X188479394Y-80577441D01*
X188098441Y-80577441D01*
X188003203Y-80625060D01*
X187955584Y-80672679D01*
X187907965Y-80767917D01*
X187907965Y-80910774D01*
X187955584Y-81006012D01*
X188003203Y-81053631D01*
X188098441Y-81101250D01*
X188479394Y-81101250D01*
X187003203Y-81577441D02*
X187479394Y-81577441D01*
X187479394Y-80577441D01*
X186098441Y-81577441D02*
X186431775Y-81101250D01*
X186669870Y-81577441D02*
X186669870Y-80577441D01*
X186288917Y-80577441D01*
X186193679Y-80625060D01*
X186146060Y-80672679D01*
X186098441Y-80767917D01*
X186098441Y-80910774D01*
X186146060Y-81006012D01*
X186193679Y-81053631D01*
X186288917Y-81101250D01*
X186669870Y-81101250D01*
X185717489Y-80672679D02*
X185669870Y-80625060D01*
X185574632Y-80577441D01*
X185336536Y-80577441D01*
X185241298Y-80625060D01*
X185193679Y-80672679D01*
X185146060Y-80767917D01*
X185146060Y-80863155D01*
X185193679Y-81006012D01*
X185765108Y-81577441D01*
X185146060Y-81577441D01*
X184669870Y-81577441D02*
X184479394Y-81577441D01*
X184384155Y-81529822D01*
X184336536Y-81482203D01*
X184241298Y-81339346D01*
X184193679Y-81148870D01*
X184193679Y-80767917D01*
X184241298Y-80672679D01*
X184288917Y-80625060D01*
X184384155Y-80577441D01*
X184574632Y-80577441D01*
X184669870Y-80625060D01*
X184717489Y-80672679D01*
X184765108Y-80767917D01*
X184765108Y-81006012D01*
X184717489Y-81101250D01*
X184669870Y-81148870D01*
X184574632Y-81196489D01*
X184384155Y-81196489D01*
X184288917Y-81148870D01*
X184241298Y-81101250D01*
X184193679Y-81006012D01*
X183574632Y-80577441D02*
X183479393Y-80577441D01*
X183384155Y-80625060D01*
X183336536Y-80672679D01*
X183288917Y-80767917D01*
X183241298Y-80958393D01*
X183241298Y-81196489D01*
X183288917Y-81386965D01*
X183336536Y-81482203D01*
X183384155Y-81529822D01*
X183479393Y-81577441D01*
X183574632Y-81577441D01*
X183669870Y-81529822D01*
X183717489Y-81482203D01*
X183765108Y-81386965D01*
X183812727Y-81196489D01*
X183812727Y-80958393D01*
X183765108Y-80767917D01*
X183717489Y-80672679D01*
X183669870Y-80625060D01*
X183574632Y-80577441D01*
X182669870Y-81006012D02*
X182765108Y-80958393D01*
X182812727Y-80910774D01*
X182860346Y-80815536D01*
X182860346Y-80767917D01*
X182812727Y-80672679D01*
X182765108Y-80625060D01*
X182669870Y-80577441D01*
X182479393Y-80577441D01*
X182384155Y-80625060D01*
X182336536Y-80672679D01*
X182288917Y-80767917D01*
X182288917Y-80815536D01*
X182336536Y-80910774D01*
X182384155Y-80958393D01*
X182479393Y-81006012D01*
X182669870Y-81006012D01*
X182765108Y-81053631D01*
X182812727Y-81101250D01*
X182860346Y-81196489D01*
X182860346Y-81386965D01*
X182812727Y-81482203D01*
X182765108Y-81529822D01*
X182669870Y-81577441D01*
X182479393Y-81577441D01*
X182384155Y-81529822D01*
X182336536Y-81482203D01*
X182288917Y-81386965D01*
X182288917Y-81196489D01*
X182336536Y-81101250D01*
X182384155Y-81053631D01*
X182479393Y-81006012D01*
M02*
